<?xml version="1.0" encoding="UTF-8"?>
<!DOCTYPE svg PUBLIC "-//W3C//DTD SVG 1.1//EN" "http://www.w3.org/Graphics/SVG/1.1/DTD/svg11.dtd">
<!-- Creator: CorelDRAW 2019 (64-Bit) -->
<svg xmlns="http://www.w3.org/2000/svg" xml:space="preserve" width="1700px" height="500px" version="1.1" style="shape-rendering:geometricPrecision; text-rendering:geometricPrecision; image-rendering:optimizeQuality; fill-rule:evenodd; clip-rule:evenodd"
viewBox="0 0 1700 500"
 xmlns:xlink="http://www.w3.org/1999/xlink"
 enable-background="new 0 0 512.112 512.112">
 <defs>
  <style type="text/css">
   <![CDATA[
    .fil0 {fill:none}
    .fil1 {fill:#3D3329}
    .fil2 {fill:#4C4034}
   ]]>
  </style>
 </defs>
 <g id="Layer_x0020_1">
  <metadata id="CorelCorpID_0Corel-Layer"/>
  <rect class="fil0" width="1700" height="500"/>
  <g id="_1849139340912">
   <g>
    <g>
     <path class="fil1" d="M1655.34 207.45c-1.32,-1.99 -3.96,-2.6 -6.01,-1.41l-6.5 -3.06c-0.48,-0.23 -1.04,-0.19 -1.48,0.11 -0.44,0.29 -0.69,0.8 -0.66,1.32l0.3 5.6 -5.16 -2.43c-0.48,-0.23 -1.04,-0.19 -1.48,0.11 -0.44,0.29 -0.69,0.8 -0.66,1.32l0.3 5.6 -5.16 -2.44c-0.48,-0.22 -1.04,-0.18 -1.48,0.12 -0.44,0.29 -0.69,0.79 -0.66,1.32l0.38 7.1 -3.68 2.43 -3.3 -2.18 0.4 -7.35c0.03,-0.52 -0.22,-1.03 -0.66,-1.32 -0.44,-0.3 -1,-0.34 -1.48,-0.12l-5.16 2.44 0.3 -5.6c0.03,-0.52 -0.22,-1.03 -0.66,-1.32 -0.44,-0.3 -1,-0.34 -1.48,-0.11l-5.16 2.43 0.3 -5.6c0.03,-0.52 -0.22,-1.03 -0.66,-1.32 -0.44,-0.3 -1,-0.34 -1.48,-0.11l-6.73 3.17c-0.99,-0.64 -2.17,-0.86 -3.33,-0.63 -1.18,0.25 -2.19,0.93 -2.85,1.94 -0.66,1 -0.9,2.2 -0.65,3.38 0.24,1.17 0.92,2.19 1.93,2.85l0.97 0.64 0 7c0,14.98 11.16,27.41 25.6,29.41l0 11.69c-1.47,-1.25 -3.38,-2 -5.45,-2l-6.45 0c-0.83,0 -1.5,0.67 -1.5,1.5l0 3.84c0,2.08 0.76,3.98 2.01,5.45l-3.2 0c-2.32,0 -4.21,1.89 -4.21,4.21l0 5.78c0,2.19 1.67,3.98 3.8,4.19l0 16.82 -6.6 0c-0.83,0 -1.5,0.67 -1.5,1.5 0,0.83 0.67,1.5 1.5,1.5l51.6 0c0.82,0 1.5,-0.67 1.5,-1.5 0,-0.83 -0.68,-1.5 -1.5,-1.5l-6.4 0 0 -16.82c2.13,-0.21 3.8,-2 3.8,-4.19l0 -5.78c0,-2.32 -1.89,-4.21 -4.21,-4.21l-3.2 0c1.25,-1.47 2.01,-3.37 2.01,-5.45l0 -3.84c0,-0.83 -0.67,-1.5 -1.5,-1.5l-6.45 0c-2.08,0 -3.98,0.75 -5.45,2l0 -2.2c0,-0.83 -0.67,-1.5 -1.5,-1.5 -0.83,0 -1.5,0.67 -1.5,1.5l0 8.65 0 2.34 -2.6 0 0 -2.34 0 -17.88c0.37,0.02 0.73,0.03 1.1,0.03 0.5,0 1,-0.02 1.5,-0.04l0 3.24c0,0.82 0.67,1.5 1.5,1.5 0.83,0 1.5,-0.68 1.5,-1.5l0 -3.54c14.25,-2.18 25.2,-14.51 25.2,-29.36l0 -7 0.97 -0.64c1.01,-0.66 1.69,-1.68 1.93,-2.85 0.25,-1.18 0.01,-2.38 -0.65,-3.39zm-8.95 0.52l-2.42 1.59 -0.15 -2.8 2.57 1.21zm-6.98 4.61l-2.44 1.6 -0.15 -2.82 2.59 1.22zm-6.99 4.6l-2.44 1.62 -0.16 -2.84 2.6 1.22zm-15.06 -1.22l-0.17 3.09 -2.67 -1.76 2.84 -1.33zm-7 -4.6l-0.17 3.08 -2.65 -1.75 2.82 -1.33zm-7 -4.6l-0.17 3.06 -2.63 -1.74 2.8 -1.32zm4.32 36.14c-4.37,-3.19 -7.74,-7.67 -9.54,-12.89 0.97,-0.38 2.01,-0.58 3.05,-0.58 4.58,0 8.3,3.72 8.3,8.3 0,1.91 -0.64,3.71 -1.81,5.17zm1.21 20.53l4.95 0c3,0 5.45,2.44 5.45,5.45l0 2.34 -4.95 0c-3,0 -5.45,-2.44 -5.45,-5.45l0 -2.34zm31 38.79l-32.6 0 0 -16.8 32.6 0 0 16.8zm-12 -33.34c0,-3.01 2.44,-5.45 5.45,-5.45l4.95 0 0 2.34c0,3.01 -2.45,5.45 -5.45,5.45l-4.95 0 0 -2.34zm14.59 5.34c0.66,0 1.21,0.55 1.21,1.21l0 5.78c0,0.67 -0.55,1.21 -1.21,1.21l-37.78 0c-0.66,0 -1.21,-0.54 -1.21,-1.21l0 -5.78c0,-0.66 0.55,-1.21 1.21,-1.21l37.78 0zm-3.13 -31.5c-1.08,-1.43 -1.66,-3.17 -1.66,-4.99 0,-4.58 3.72,-8.3 8.3,-8.3 0.93,0 1.83,0.15 2.69,0.45 -1.75,5.17 -5.04,9.63 -9.33,12.84zm13.7 -32.49c-0.08,0.4 -0.3,0.73 -0.64,0.95l-1.66 1.1c0,0 0,0 0,0l-26.53 17.5c-0.5,0.33 -1.16,0.33 -1.66,0l-12.97 -8.55c-0.69,-0.46 -1.62,-0.27 -2.07,0.42 -0.46,0.7 -0.27,1.63 0.42,2.08l12.97 8.56c0.74,0.48 1.6,0.74 2.48,0.74 0.88,0 1.74,-0.26 2.48,-0.74l24.22 -15.98 0 5.02c0,1.94 -0.21,3.84 -0.61,5.66 -1.12,-0.37 -2.31,-0.56 -3.49,-0.56 -6.23,0 -11.3,5.07 -11.3,11.3 0,2.42 0.76,4.73 2.16,6.64 -3.95,2.32 -8.55,3.66 -13.46,3.66 -4.79,0 -9.3,-1.27 -13.19,-3.49 1.47,-1.95 2.29,-4.35 2.29,-6.81 0,-6.23 -5.07,-11.3 -11.3,-11.3 -1.32,0 -2.63,0.24 -3.86,0.69 -0.42,-1.87 -0.64,-3.8 -0.64,-5.79l0 -5.02 6.24 4.12c0.69,0.45 1.62,0.26 2.08,-0.43 0.45,-0.69 0.26,-1.62 -0.43,-2.08l-8.55 -5.64c0,0 0,0 0,0l-1.66 -1.1c-0.34,-0.22 -0.56,-0.55 -0.65,-0.95 -0.08,-0.39 0,-0.79 0.22,-1.12 0.22,-0.34 0.56,-0.57 0.95,-0.65 0.39,-0.08 0.79,0 1.13,0.22l26.54 17.51c0.51,0.33 1.15,0.33 1.66,0l26.54 -17.51c0.69,-0.46 1.62,-0.26 2.08,0.43 0.22,0.33 0.29,0.73 0.21,1.12z"/>
    </g>
   </g>
   <g>
    <g>
     <path class="fil1" d="M1623.59 234.43c-3.36,0 -6.1,2.74 -6.1,6.1 0,3.36 2.74,6.1 6.1,6.1 3.36,0 6.1,-2.74 6.1,-6.1 0,-3.36 -2.74,-6.1 -6.1,-6.1zm0 9.2c-1.71,0 -3.1,-1.39 -3.1,-3.1 0,-1.71 1.39,-3.1 3.1,-3.1 1.71,0 3.1,1.39 3.1,3.1 0,1.71 -1.39,3.1 -3.1,3.1z"/>
    </g>
   </g>
   <g>
   </g>
   <g>
   </g>
   <g>
   </g>
   <g>
   </g>
   <g>
   </g>
   <g>
   </g>
   <g>
   </g>
   <g>
   </g>
   <g>
   </g>
   <g>
   </g>
   <g>
   </g>
   <g>
   </g>
   <g>
   </g>
   <g>
   </g>
   <g>
   </g>
  </g>
  <g id="_1849139329616">
   <g>
    <g>
     <g>
      <path class="fil1" d="M879.47 277.63l-5.03 -35.13c-0.44,-3.06 -1.97,-5.88 -4.31,-7.93 -2.36,-2.06 -5.4,-3.2 -8.54,-3.2 -4.45,0 -8.59,2.29 -10.96,6.03l-16.11 0c-2.37,-3.74 -6.51,-6.03 -10.96,-6.03 -3.15,0 -6.18,1.14 -8.54,3.2 -2.35,2.05 -3.88,4.87 -4.32,7.93l-5.02 35.13c-0.06,0.43 -0.09,0.86 -0.09,1.29 0,4.99 4.06,9.05 9.05,9.05 3.73,0 7.13,-2.34 8.46,-5.83l4.43 -11.67c1.07,0.83 2.41,1.33 3.87,1.33 2.48,0 4.64,-1.44 5.66,-3.54l11.03 0c1.02,2.1 3.17,3.54 5.66,3.54 1.46,0 2.8,-0.5 3.87,-1.33l4.43 11.67c1.33,3.49 4.73,5.83 8.46,5.83 4.99,0 9.05,-4.06 9.05,-9.05 0,-0.43 -0.03,-0.86 -0.09,-1.29zm-48.07 -8.19c-2.17,0 -3.94,-1.76 -3.94,-3.93 0,-2.17 1.77,-3.94 3.94,-3.94 2.17,0 3.93,1.77 3.93,3.94 0,2.17 -1.76,3.93 -3.93,3.93zm22.35 0c-2.17,0 -3.94,-1.76 -3.94,-3.93 0,-2.17 1.77,-3.94 3.94,-3.94 2.17,0 3.93,1.77 3.93,3.94 0,2.17 -1.76,3.93 -3.93,3.93zm16.76 16.17c-2.76,0 -5.27,-1.73 -6.25,-4.31l-4.91 -12.92c0.44,-0.86 0.69,-1.84 0.69,-2.87 0,-3.48 -2.82,-6.3 -6.29,-6.3 -3.47,0 -6.3,2.82 -6.3,6.3 0,0.13 0.01,0.26 0.02,0.39l-9.79 0c0.01,-0.13 0.01,-0.26 0.01,-0.39 0,-3.48 -2.82,-6.3 -6.29,-6.3 -3.47,0 -6.3,2.82 -6.3,6.3 0,1.03 0.26,2.01 0.7,2.87l-4.91 12.92c-0.98,2.58 -3.49,4.31 -6.25,4.31 -3.69,0 -6.69,-3 -6.69,-6.69 0,-0.31 0.02,-0.64 0.07,-0.95l0.21 -1.52 10.11 2.1c0.08,0.02 0.17,0.03 0.25,0.03 0.54,0 1.03,-0.38 1.15,-0.94 0.13,-0.64 -0.28,-1.26 -0.92,-1.4l-10.25 -2.14 3.42 -23.87c2.14,4.21 6.52,7.11 11.57,7.11 7.16,0 12.98,-5.83 12.98,-12.99 0,-0.38 -0.01,-0.77 -0.05,-1.16 -0.06,-0.65 -0.63,-1.13 -1.28,-1.07 -0.65,0.06 -1.13,0.63 -1.07,1.28 0.03,0.32 0.04,0.63 0.04,0.95 0,5.86 -4.76,10.63 -10.62,10.63 -5.86,0 -10.63,-4.77 -10.63,-10.63 0,-0.12 -0.02,-0.24 -0.05,-0.36l0.16 -1.16c0.75,-5.19 5.27,-9.1 10.52,-9.1 3.83,0 7.38,2.08 9.26,5.42 0.21,0.38 0.6,0.61 1.03,0.61l17.45 0c0.42,0 0.82,-0.23 1.03,-0.61 1.88,-3.34 5.43,-5.42 9.26,-5.42 5.25,0 9.77,3.91 10.52,9.1l0.16 1.16c-0.04,0.12 -0.06,0.24 -0.06,0.36 0,5.86 -4.76,10.63 -10.62,10.63 -5.86,0 -10.62,-4.77 -10.62,-10.63 0,-0.32 0.01,-0.63 0.04,-0.95 0.06,-0.65 -0.42,-1.22 -1.07,-1.28 -0.65,-0.06 -1.23,0.42 -1.28,1.07 -0.04,0.39 -0.05,0.78 -0.05,1.16 0,7.16 5.82,12.99 12.98,12.99 5.05,0 9.43,-2.9 11.57,-7.11l3.42 23.87 -10.26 2.14c-0.63,0.14 -1.04,0.76 -0.91,1.4 0.11,0.56 0.6,0.94 1.15,0.94 0.08,0 0.16,-0.01 0.24,-0.03l10.11 -2.1 0.22 1.52c0.05,0.31 0.07,0.64 0.07,0.95 0,3.69 -3,6.69 -6.69,6.69z"/>
      <path class="fil1" d="M829.07 243.17l-4.33 0 0 -4.32c0,-0.66 -0.53,-1.19 -1.18,-1.19 -0.65,0 -1.18,0.53 -1.18,1.19l0 4.32 -4.33 0c-0.65,0 -1.18,0.53 -1.18,1.18 0,0.66 0.53,1.18 1.18,1.18l4.33 0 0 4.33c0,0.65 0.53,1.18 1.18,1.18 0.65,0 1.18,-0.53 1.18,-1.18l0 -4.33 4.33 0c0.65,0 1.18,-0.53 1.18,-1.18 0,-0.65 -0.53,-1.18 -1.18,-1.18z"/>
      <path class="fil1" d="M861.59 251.04c3.69,0 6.69,-3 6.69,-6.69 0,-3.68 -3,-6.69 -6.69,-6.69 -3.69,0 -6.69,3.01 -6.69,6.69 0,3.69 3,6.69 6.69,6.69zm0 -11.01c2.39,0 4.33,1.94 4.33,4.32 0,2.39 -1.94,4.33 -4.33,4.33 -2.39,0 -4.33,-1.94 -4.33,-4.33 0,-2.38 1.94,-4.32 4.33,-4.32z"/>
      <path class="fil1" d="M844.43 261.18l-3.71 0c-0.65,0 -1.18,0.53 -1.18,1.18 0,0.65 0.53,1.18 1.18,1.18l3.71 0c0.65,0 1.18,-0.53 1.18,-1.18 0,-0.65 -0.53,-1.18 -1.18,-1.18z"/>
     </g>
    </g>
   </g>
   <g>
   </g>
   <g>
   </g>
   <g>
   </g>
   <g>
   </g>
   <g>
   </g>
   <g>
   </g>
   <g>
   </g>
   <g>
   </g>
   <g>
   </g>
   <g>
   </g>
   <g>
   </g>
   <g>
   </g>
   <g>
   </g>
   <g>
   </g>
   <g>
   </g>
  </g>
  <g id="_1849139313392">
   <g>
    <g>
     <path class="fil1" d="M501.27 327.94l-53.17 0c-2.99,0 -5.43,2.43 -5.43,5.43l0 44.08c0,3 2.44,5.43 5.43,5.43l53.17 0c2.99,0 5.43,-2.43 5.43,-5.43l0 -44.08c0,-3 -2.44,-5.43 -5.43,-5.43zm0 51.77l-53.17 0c-1.25,0 -2.26,-1.01 -2.26,-2.26l0 -44.08c0,-1.25 1.01,-2.26 2.26,-2.26l53.17 0c1.25,0 2.26,1.01 2.26,2.26l0 44.08 0 0c0,1.25 -1.01,2.26 -2.26,2.26z"/>
    </g>
   </g>
   <g>
    <g>
     <path class="fil1" d="M498.78 334.28l-48.19 0c-0.87,0 -1.58,0.71 -1.58,1.58l0 24.52c0,0.87 0.71,1.58 1.58,1.58 0.88,0 1.59,-0.71 1.59,-1.58l0 -22.93 45.01 0 0 35.92 -45.01 0 0 -6.65c0,-0.88 -0.71,-1.59 -1.59,-1.59 -0.87,0 -1.58,0.71 -1.58,1.59l0 8.24c0,0.87 0.71,1.58 1.58,1.58l48.19 0c0.87,0 1.58,-0.71 1.58,-1.58l0 -39.1c0,-0.87 -0.71,-1.58 -1.58,-1.58z"/>
    </g>
   </g>
   <g>
    <g>
     <circle class="fil1" cx="494.02" cy="340.83" r="1.9"/>
    </g>
   </g>
   <g>
    <g>
     <circle class="fil1" cx="455.77" cy="340.83" r="1.9"/>
    </g>
   </g>
   <g>
    <g>
     <circle class="fil1" cx="494.02" cy="369.99" r="1.9"/>
    </g>
   </g>
   <g>
    <g>
     <circle class="fil1" cx="455.77" cy="369.99" r="1.9"/>
    </g>
   </g>
   <g>
    <g>
     <path class="fil1" d="M483.74 339.59l-16.63 0c-2.23,0 -4.05,1.81 -4.05,4.04l0 6.19c0,1.22 0.99,2.2 2.2,2.2l3.69 0c1.21,0 2.2,-0.98 2.2,-2.2l0 -2.15 8.55 0 0 3.36 -6.74 3.59c-1.32,0.7 -2.15,2.07 -2.15,3.57l0 2.85c0,1.24 1.01,2.24 2.24,2.24l3.61 0c1.24,0 2.24,-1 2.24,-2.24l0 -0.42 0 0 6.74 -3.59c1.33,-0.7 2.15,-2.07 2.15,-3.57l0 -9.83c0,-2.23 -1.82,-4.04 -4.05,-4.04zm0.88 13.87c0,0.33 -0.18,0.62 -0.47,0.77l-7.58 4.04c-0.52,0.27 -0.84,0.81 -0.84,1.4l0 0.44 -1.75 0 0 -1.92c0,-0.32 0.18,-0.62 0.47,-0.77l7.58 -4.03c0.52,-0.28 0.84,-0.82 0.84,-1.4l0 -5.9c0,-0.88 -0.71,-1.59 -1.58,-1.59l-11.73 0c-0.87,0 -1.58,0.71 -1.58,1.59l0 2.76 -1.75 0 0 -5.22c0,-0.48 0.39,-0.87 0.88,-0.87l16.63 0c0.49,0 0.88,0.39 0.88,0.87l0 9.83z"/>
    </g>
   </g>
   <g>
    <g>
     <path class="fil1" d="M476.4 364.39l-3.08 0c-1.38,0 -2.51,1.12 -2.51,2.5l0 3.24c0,1.38 1.13,2.5 2.51,2.5l3.08 0c1.38,0 2.5,-1.12 2.5,-2.5l0 -3.24c0,-1.38 -1.12,-2.5 -2.5,-2.5zm-0.67 5.07l-1.75 0 0 -1.9 1.75 0 0 1.9z"/>
    </g>
   </g>
   <g>
    <g>
     <path class="fil1" d="M460.53 296.66l-5.29 0c-6.35,0 -11.52,5.17 -11.52,11.52l0 6.34c0,6.35 5.17,11.51 11.52,11.51l5.29 0c6.35,0 11.51,-5.16 11.51,-11.51l0 -6.34c0,-6.35 -5.16,-11.52 -11.51,-11.52zm3.06 17.86c0,4.6 -3.75,8.34 -8.35,8.34 -4.6,0 -8.35,-3.74 -8.35,-8.34l0 -6.34c0,-4.61 3.75,-8.35 8.35,-8.35 4.6,0 8.35,3.74 8.35,8.35l0 6.34zm5.28 0c0,3.43 -2.08,6.38 -5.04,7.66 1.82,-2.04 2.93,-4.72 2.93,-7.66l0 -6.34c0,-2.95 -1.11,-5.63 -2.93,-7.67 2.96,1.29 5.04,4.24 5.04,7.67l0 6.34z"/>
    </g>
   </g>
   <g>
    <g>
     <path class="fil1" d="M455.24 303.32c-2.5,0 -4.54,2.03 -4.54,4.54l0 7.4c0,2.5 2.04,4.54 4.54,4.54 2.51,0 4.55,-2.04 4.55,-4.54l0 -7.4c0,-2.51 -2.04,-4.54 -4.55,-4.54zm1.38 11.94c0,0.75 -0.62,1.37 -1.38,1.37 -0.75,0 -1.37,-0.62 -1.37,-1.37l0 -7.4c0,-0.76 0.62,-1.37 1.37,-1.37 0.76,0 1.38,0.61 1.38,1.37l0 7.4z"/>
    </g>
   </g>
   <g>
    <g>
     <path class="fil1" d="M493.92 274.68l-5.29 0c-6.35,0 -11.51,5.17 -11.51,11.52l0 6.34c0,6.35 5.16,11.52 11.51,11.52l5.29 0c6.35,0 11.51,-5.17 11.51,-11.52l0 -6.34c0,-6.35 -5.16,-11.52 -11.51,-11.52zm8.34 17.86c0,3.43 -2.08,6.38 -5.04,7.66 1.82,-2.04 2.93,-4.72 2.93,-7.66l0 -1.48c0,-0.88 -0.71,-1.59 -1.58,-1.59 -0.88,0 -1.59,0.71 -1.59,1.59l0 1.48c0,4.6 -3.74,8.34 -8.35,8.34 -4.6,0 -8.34,-3.74 -8.34,-8.34l0 -6.34c0,-4.6 3.74,-8.35 8.34,-8.35 4.1,0 7.65,3.05 8.26,7.1 0.13,0.87 0.93,1.46 1.8,1.34 0.87,-0.13 1.46,-0.94 1.33,-1.81 -0.34,-2.28 -1.35,-4.33 -2.82,-5.96 2.97,1.28 5.06,4.24 5.06,7.68l0 6.34z"/>
    </g>
   </g>
   <g>
    <g>
     <path class="fil1" d="M488.63 281.34c-2.5,0 -4.54,2.04 -4.54,4.54l0 7.4c0,2.5 2.04,4.54 4.54,4.54 2.51,0 4.55,-2.04 4.55,-4.54l0 -7.4c0,-2.5 -2.04,-4.54 -4.55,-4.54zm1.38 11.94c0,0.75 -0.62,1.37 -1.38,1.37 -0.75,0 -1.37,-0.62 -1.37,-1.37l0 -7.4c0,-0.76 0.62,-1.37 1.37,-1.37 0.76,0 1.38,0.61 1.38,1.37l0 7.4z"/>
    </g>
   </g>
   <g>
    <g>
     <path class="fil1" d="M461.22 283.58c-1.87,-0.92 -3.13,-2.19 -3.83,-3.89 -0.33,-0.78 -1.1,-1.31 -1.95,-1.33 -0.86,-0.02 -1.65,0.46 -2.01,1.23 -0.88,1.84 -2.23,3.18 -4.12,4.11 -0.79,0.39 -1.26,1.2 -1.21,2.07 0.05,0.87 0.61,1.63 1.44,1.92 1.92,0.7 3.19,1.86 3.87,3.56 0.33,0.83 1.12,1.35 2.01,1.35 0.01,0 0.03,0 0.05,0 0.91,-0.02 1.69,-0.58 2,-1.44 0.67,-1.89 1.78,-3.05 3.4,-3.55 0.87,-0.26 1.48,-1.02 1.55,-1.92 0.07,-0.89 -0.4,-1.72 -1.2,-2.11zm-5.87 4.63c-0.75,-1.09 -1.73,-1.98 -2.94,-2.67 1.17,-0.81 2.15,-1.8 2.94,-2.95 0.71,1.09 1.62,2.03 2.74,2.81 -1.12,0.68 -2.03,1.61 -2.74,2.81z"/>
    </g>
   </g>
   <g>
   </g>
   <g>
   </g>
   <g>
   </g>
   <g>
   </g>
   <g>
   </g>
   <g>
   </g>
   <g>
   </g>
   <g>
   </g>
   <g>
   </g>
   <g>
   </g>
   <g>
   </g>
   <g>
   </g>
   <g>
   </g>
   <g>
   </g>
   <g>
   </g>
  </g>
  <g id="_1849139314384">
   <path class="fil1" d="M1655.15 83.03l-1.22 -0.53c-4.53,-1.94 -9.28,-3.35 -14.14,-4.24l-2.36 -14.93c-0.52,-3.32 -3.34,-5.73 -6.7,-5.73l-2.15 0c-3.7,0 -7.4,0.36 -11.02,1.09l-2.88 0.57 -6.3 -2.52c-0.84,-0.33 -1.72,-0.5 -2.62,-0.5 -3.89,0 -7.05,3.16 -7.05,7.05 0,3.98 -1.23,7.81 -3.54,11.05l-0.27 0.38c-0.41,0.57 -0.77,1.15 -1.12,1.75l-7.8 -1.12c-0.5,-0.07 -1.01,-0.1 -1.51,-0.1l-0.93 0c-2.84,0 -5.51,1.1 -7.52,3.11 -1.97,1.98 -3.11,4.72 -3.11,7.52l0 1.82c0,2.8 1.14,5.54 3.11,7.52 5.51,5.51 12.84,8.54 20.63,8.54 10.43,0 20.93,-2.35 30.36,-6.79l1.22 -0.57c5.02,-2.36 10.32,-4.11 15.76,-5.2l10.54 -2.11c1.48,-0.3 2.56,-1.61 2.56,-3.13 0,-1.28 -0.76,-2.43 -1.94,-2.93l0 0zm-17.4 -0.25c0.1,0.63 -0.26,1.25 -0.86,1.48 -5.74,2.15 -11.72,3.62 -17.79,4.38l-5.1 0.64c-4.74,0.59 -9.56,0.63 -14.35,0.09 -2.51,-0.28 -4.77,-1.57 -6.28,-3.57l0.32 -1.62c0.04,-0.19 0.1,-0.38 0.15,-0.57l1.15 0.33c5.04,1.44 10.26,2.17 15.51,2.17 4.9,0 9.8,-0.64 14.54,-1.9l12.42 -3.32 0.29 1.89zm-40.65 -6.48l0.28 -0.38c2.64,-3.71 4.04,-8.08 4.04,-12.63 0,-2.39 1.95,-4.34 4.34,-4.34 0.55,0 1.09,0.11 1.61,0.32l1.98 0.79c-1.73,0.17 -3.47,0.25 -5.21,0.25l0 2.72c3.69,0 7.4,-0.37 11.02,-1.09l2.93 -0.59c3.44,-0.69 6.97,-1.04 10.49,-1.04l2.15 0c2.01,0 3.71,1.45 4.02,3.44l2.28 14.45 -12.69 3.38c-9.34,2.49 -19.31,2.4 -28.6,-0.26l-1.12 -0.31c0.63,-1.67 1.44,-3.25 2.48,-4.71l0 0zm56.89 10.13l-10.53 2.11c-5.65,1.13 -11.16,2.95 -16.38,5.4l-1.23 0.58c-9.07,4.27 -19.17,6.52 -29.2,6.52 -7.07,0 -13.71,-2.75 -18.71,-7.74 -1.47,-1.48 -2.31,-3.52 -2.31,-5.6l0 -1.82c0,-2.09 0.84,-4.13 2.31,-5.6 1.5,-1.49 3.49,-2.32 5.6,-2.32l0.93 0c0.37,0 0.75,0.03 1.12,0.08l6.88 0.98c-0.64,1.48 -1.12,3.03 -1.44,4.63l-0.44 2.19c-0.07,0.36 0,0.72 0.2,1.02 1.95,2.92 5.07,4.82 8.59,5.22 2.34,0.26 4.69,0.39 7.04,0.39 2.65,0 5.29,-0.17 7.92,-0.5l5.09 -0.63c6.29,-0.79 12.48,-2.31 18.41,-4.54 1.81,-0.68 2.9,-2.55 2.59,-4.45l-0.19 -1.23c4.33,0.86 8.57,2.14 12.62,3.88l1.22 0.52c0.18,0.08 0.3,0.25 0.3,0.44 0,0.23 -0.17,0.43 -0.39,0.47z"/>
  </g>
  <g id="_1849139311312">
   <g>
    <path class="fil1" d="M979.71 153.69c5.49,-3.31 9.35,-6.87 9.28,-10.67 0,-3.35 -2.72,-6.07 -6.06,-6.07 -1.15,0 -2.27,0.33 -3.22,0.93 -0.96,-0.6 -2.07,-0.93 -3.22,-0.93 -3.34,0 -6.06,2.72 -6.06,6.07 -0.03,3.56 3.22,7.03 9.28,10.67l0 0zm-3.22 -13.17c1.45,-0.04 2.39,1.49 3.22,2.39 0.75,-0.84 1.91,-2.52 3.22,-2.39 1.37,0 2.49,1.12 2.49,2.5 0,1.23 -1.02,3.33 -5.71,6.44 -4.69,-3.11 -5.72,-5.21 -5.72,-6.44 0,-1.38 1.12,-2.5 2.5,-2.5l0 0z"/>
    <path class="fil1" d="M1000.54 172.36c2.57,-1.97 4.24,-5.06 4.24,-8.55 0,-5.92 -4.82,-10.74 -10.74,-10.74 -5.92,0 -10.74,4.82 -10.74,10.74 0,3.49 1.66,6.58 4.24,8.55 -0.63,0.28 -1.24,0.59 -1.83,0.95 -1.59,-1.44 -3.69,-2.32 -6,-2.32 -1.21,0 -2.37,0.24 -3.43,0.68 -1.29,-1.19 -2.77,-2.17 -4.4,-2.89 2.57,-1.97 4.24,-5.07 4.24,-8.55 0,-5.92 -4.82,-10.74 -10.74,-10.74 -5.92,0 -10.74,4.82 -10.74,10.74 0,3.48 1.66,6.58 4.24,8.54 -5.66,2.51 -9.62,8.17 -9.62,14.75l0 14.32 60.89 0 0 -10.74c0,-6.57 -3.96,-12.24 -9.61,-14.74l0 0zm-13.67 -8.55c0,-3.95 3.21,-7.17 7.17,-7.17 3.95,0 7.17,3.22 7.17,7.17 0,3.96 -3.22,7.18 -7.17,7.18 -3.96,0 -7.17,-3.22 -7.17,-7.18zm-1.78 16.13c0,2.96 -2.42,5.38 -5.38,5.38 -2.97,0 -5.38,-2.42 -5.38,-5.38 0,-2.97 2.41,-5.39 5.38,-5.39 2.96,0 5.38,2.42 5.38,5.39zm-26.88 -19.71c0,-3.95 3.21,-7.17 7.17,-7.17 3.95,0 7.17,3.22 7.17,7.17 0,3.96 -3.22,7.17 -7.17,7.17 -3.96,0 -7.17,-3.21 -7.17,-7.17zm10.91 34.04l-16.29 0 0 -10.75c0,-6.92 5.63,-12.55 12.55,-12.55 2.97,0 5.71,1.04 7.87,2.78 -1.54,1.61 -2.49,3.79 -2.49,6.19 0,2.81 1.3,5.32 3.34,6.96 -2.59,1.59 -4.46,4.26 -4.98,7.37zm3.64 0c0.8,-3.09 3.61,-5.39 6.95,-5.39 3.34,0 6.15,2.3 6.95,5.39l-13.9 0zm33.82 0l-16.28 0c-0.52,-3.11 -2.39,-5.78 -4.98,-7.37 2.03,-1.64 3.34,-4.15 3.34,-6.96 0,-1.34 -0.3,-2.6 -0.82,-3.74 1.83,-1.05 3.94,-1.65 6.2,-1.65 6.92,0 12.54,5.63 12.54,12.55l0 7.17z"/>
   </g>
  </g>
  <g id="_1849139304048">
   <g>
    <g>
     <path class="fil1" d="M751.39 386.03l-8.56 -8.56 0 -57.28c0,-2.52 -2.05,-4.58 -4.57,-4.58l-28.51 0c-0.51,-0.92 -1.5,-1.55 -2.64,-1.55l-4.67 0c-1.13,0 -2.12,0.63 -2.64,1.55l-8.26 0c-2.52,0 -4.57,2.06 -4.57,4.58l0 62.29c0,2.52 2.05,4.57 4.57,4.57l39.03 0 0 7.56c0,0.54 0.29,1.03 0.77,1.28 0.47,0.26 1.04,0.24 1.49,-0.06l4.2 -2.75 5.52 13.31c0.15,0.36 0.43,0.64 0.79,0.79 0.18,0.08 0.37,0.11 0.56,0.11 0.19,0 0.38,-0.03 0.56,-0.11l5.97 -2.47c0.75,-0.31 1.1,-1.17 0.79,-1.91l-5.51 -13.31 4.94 -1c0.53,-0.1 0.95,-0.49 1.11,-1.01 0.15,-0.51 0.01,-1.07 -0.37,-1.45zm-49.04 -68.95c0,-0.06 0.04,-0.1 0.09,-0.1l4.67 0c0.06,0 0.1,0.04 0.1,0.09l0 0c0,0.01 0,0.01 0,0.01l0 10.97 -1.52 -1.22c-0.27,-0.21 -0.59,-0.32 -0.91,-0.32 -0.32,0 -0.65,0.11 -0.91,0.32l-1.52 1.22 0 -10.97 0 0zm-9.15 67.05l-1.66 0c-0.91,0 -1.65,-0.74 -1.65,-1.65l0 -62.29c0,-0.91 0.74,-1.66 1.65,-1.66l1.66 0 0 65.6zm38.27 -16.75c-0.54,0.23 -0.9,0.76 -0.9,1.35l0 15.4 -34.45 0 0 -65.6 3.31 0 0 12.56c0,0.56 0.32,1.07 0.82,1.32 0.51,0.24 1.11,0.17 1.55,-0.18l2.98 -2.39 2.98 2.39c0.26,0.21 0.59,0.32 0.91,0.32 0.22,0 0.43,-0.05 0.63,-0.14 0.51,-0.25 0.83,-0.76 0.83,-1.32l0 -12.56 28.13 0c0.91,0 1.65,0.75 1.65,1.66l0 54.36 -6.85 -6.85c-0.42,-0.42 -1.04,-0.55 -1.59,-0.32zm11.92 19.6c-0.42,0.09 -0.79,0.36 -0.99,0.75 -0.21,0.38 -0.23,0.84 -0.06,1.24l5.63 13.6 -3.28 1.36 -5.63 -13.6c-0.17,-0.4 -0.51,-0.71 -0.92,-0.84 -0.14,-0.04 -0.29,-0.06 -0.43,-0.06 -0.28,0 -0.56,0.08 -0.8,0.24l-3.42 2.24 0 -19.66 13.92 13.92 -4.02 0.81z"/>
    </g>
   </g>
   <g>
    <g>
     <path class="fil1" d="M732.02 351.33c0.52,-0.53 1.01,-1.06 1.45,-1.59 3.75,-4.47 3.47,-7.26 2.57,-8.81 -0.9,-1.56 -3.17,-3.2 -8.92,-2.19 -0.68,0.12 -1.38,0.28 -2.1,0.47 -0.2,-0.72 -0.42,-1.41 -0.66,-2.06 -1.99,-5.48 -4.55,-6.63 -6.34,-6.63 -1.8,0 -4.36,1.15 -6.35,6.63 -0.24,0.65 -0.46,1.34 -0.66,2.06 -0.72,-0.19 -1.42,-0.35 -2.1,-0.47 -5.74,-1.01 -8.02,0.63 -8.92,2.19 -0.9,1.55 -1.18,4.34 2.57,8.81 0.44,0.53 0.93,1.06 1.45,1.59 -0.52,0.53 -1.01,1.07 -1.45,1.6 -3.75,4.46 -3.47,7.25 -2.57,8.81 0.71,1.22 2.26,2.49 5.68,2.49 0.93,0 2,-0.09 3.24,-0.31 0.68,-0.12 1.38,-0.27 2.1,-0.46 0.2,0.72 0.42,1.41 0.66,2.06 1.99,5.47 4.55,6.62 6.35,6.62 1.79,0 4.35,-1.14 6.34,-6.62 0.24,-0.65 0.46,-1.34 0.66,-2.06 0.72,0.19 1.42,0.34 2.1,0.46 1.24,0.22 2.31,0.31 3.24,0.31 3.42,0 4.97,-1.27 5.68,-2.49 0.9,-1.56 1.18,-4.35 -2.57,-8.81 -0.44,-0.53 -0.93,-1.07 -1.45,-1.6zm-29.5 8.95c-0.46,-0.79 -0.1,-2.65 2.27,-5.48 0.41,-0.49 0.87,-0.98 1.35,-1.47 1.1,0.95 2.3,1.88 3.59,2.79 0.14,1.56 0.35,3.06 0.62,4.49 -4.23,1.09 -7.16,0.83 -7.83,-0.33zm7.01 -7.95c-0.43,-0.34 -0.84,-0.67 -1.23,-1 0.4,-0.34 0.8,-0.67 1.23,-1 -0.01,0.33 -0.01,0.67 -0.01,1 0,0.34 0,0.67 0.01,1zm0.2 -5.78c-1.28,0.9 -2.48,1.83 -3.58,2.78 -3.06,-3.11 -4.3,-5.79 -3.63,-6.94 0.32,-0.57 1.31,-1.04 3.16,-1.04 0.76,0 1.66,0.08 2.72,0.27 0.63,0.11 1.28,0.26 1.95,0.43 -0.27,1.43 -0.48,2.93 -0.62,4.5zm13.39 -2.07c-0.28,-0.17 -0.57,-0.34 -0.86,-0.51 -0.28,-0.16 -0.57,-0.33 -0.86,-0.49 0.5,-0.2 0.99,-0.38 1.47,-0.55 0.09,0.5 0.18,1.02 0.25,1.55zm-5.1 -11.04c1.33,0 3.02,2.41 4.19,6.62 -1.37,0.47 -2.77,1.05 -4.19,1.7 -1.43,-0.65 -2.83,-1.23 -4.2,-1.7 1.17,-4.21 2.86,-6.62 4.2,-6.62zm-4.86 9.48c0.49,0.18 0.98,0.36 1.48,0.56 -0.29,0.16 -0.58,0.33 -0.87,0.49 -0.29,0.17 -0.58,0.34 -0.86,0.51 0.07,-0.54 0.16,-1.06 0.25,-1.56zm-0.25 15.27c0.28,0.17 0.57,0.34 0.86,0.5 0.28,0.17 0.57,0.33 0.86,0.49 -0.5,0.2 -0.99,0.39 -1.47,0.56 -0.09,-0.5 -0.18,-1.02 -0.25,-1.55zm5.11 11.03c-1.34,0 -3.03,-2.41 -4.2,-6.61 1.37,-0.48 2.77,-1.05 4.2,-1.71 1.42,0.66 2.82,1.23 4.19,1.71 -1.17,4.2 -2.86,6.61 -4.19,6.61zm4.85 -9.48c-0.49,-0.17 -0.98,-0.36 -1.48,-0.56 0.29,-0.16 0.58,-0.32 0.87,-0.49 0.29,-0.17 0.58,-0.33 0.86,-0.51 -0.08,0.54 -0.16,1.06 -0.25,1.56zm0.63 -5.24c-0.87,0.57 -1.77,1.13 -2.7,1.66 -0.95,0.55 -1.88,1.05 -2.78,1.5 -0.93,-0.46 -1.87,-0.96 -2.79,-1.5 -0.95,-0.55 -1.85,-1.1 -2.7,-1.66 -0.06,-1.02 -0.09,-2.07 -0.09,-3.17 0,-1.09 0.03,-2.15 0.09,-3.16 0.87,-0.57 1.77,-1.13 2.7,-1.67 0.95,-0.55 1.88,-1.04 2.78,-1.5 0.93,0.47 1.86,0.97 2.79,1.5 0.95,0.55 1.85,1.11 2.7,1.67 0.06,1.01 0.09,2.07 0.09,3.16 0,1.1 -0.03,2.15 -0.09,3.17zm10.01 -12.11c0.46,0.79 0.1,2.64 -2.27,5.47 -0.42,0.49 -0.87,0.98 -1.35,1.48 -1.1,-0.95 -2.3,-1.89 -3.59,-2.79 -0.14,-1.56 -0.35,-3.07 -0.62,-4.49 4.23,-1.09 7.16,-0.83 7.83,0.33zm-7.01 7.95c0.43,0.33 0.84,0.67 1.23,1 -0.4,0.33 -0.81,0.66 -1.23,0.99 0.01,-0.33 0.01,-0.66 0.01,-1 0,-0.33 0,-0.66 -0.01,-0.99zm7.01 9.94c-0.46,0.79 -2.24,1.41 -5.88,0.77 -0.63,-0.11 -1.28,-0.26 -1.95,-0.43 0.27,-1.43 0.48,-2.94 0.62,-4.5 1.28,-0.91 2.48,-1.84 3.58,-2.79 3.06,3.12 4.3,5.79 3.63,6.95z"/>
    </g>
   </g>
   <g>
    <g>
     <path class="fil1" d="M718.02 349.09c-1.24,0 -2.24,1.01 -2.24,2.24 0,1.24 1,2.24 2.24,2.24 1.23,0 2.23,-1 2.23,-2.24 0,-1.23 -1,-2.24 -2.23,-2.24z"/>
    </g>
   </g>
   <g>
   </g>
   <g>
   </g>
   <g>
   </g>
   <g>
   </g>
   <g>
   </g>
   <g>
   </g>
   <g>
   </g>
   <g>
   </g>
   <g>
   </g>
   <g>
   </g>
   <g>
   </g>
   <g>
   </g>
   <g>
   </g>
   <g>
   </g>
   <g>
   </g>
  </g>
  <g id="_1849139297296">
   <g>
    <path class="fil1" d="M1225.94 159.24c0.7,0 1.26,-0.57 1.26,-1.27l0 -5.06c0,-0.7 -0.56,-1.26 -1.26,-1.26 -0.7,0 -1.27,0.56 -1.27,1.26l0 5.06c0,0.7 0.57,1.27 1.27,1.27z"/>
    <path class="fil1" d="M1225.94 196.83c0.7,0 1.26,-0.56 1.26,-1.26l0 -32.54c0,-0.7 -0.56,-1.26 -1.26,-1.26 -0.7,0 -1.27,0.56 -1.27,1.26l0 32.54c0,0.7 0.57,1.26 1.27,1.26z"/>
    <path class="fil1" d="M1264.32 149.04c-0.7,0 -1.27,0.57 -1.27,1.27l0 52.98 -32.26 0c-0.65,0 -1.25,0.31 -1.64,0.83l-1.08 1.26 -4.26 0 -1.09 -1.26c-0.38,-0.52 -0.98,-0.83 -1.63,-0.83l-32.27 0 0 -52.98c0,-0.7 -0.56,-1.27 -1.26,-1.27 -0.7,0 -1.27,0.57 -1.27,1.27l0 54.24c0,0.7 0.57,1.27 1.27,1.27l33.29 0 1.42 1.65c0.24,0.28 0.59,0.44 0.96,0.44l5.42 0c0.37,0 0.72,-0.16 0.96,-0.44l1.42 -1.65 33.29 0c0.7,0 1.27,-0.57 1.27,-1.27l0 -54.24c0,-0.7 -0.57,-1.27 -1.27,-1.27z"/>
    <path class="fil1" d="M1192.62 200.76l28.47 0c1.53,0 2.95,0.76 3.8,2.03 0.23,0.36 0.63,0.57 1.05,0.57 0.42,0 0.82,-0.21 1.05,-0.57 0.85,-1.27 2.27,-2.03 3.8,-2.03l28.47 0c0.7,0 1.26,-0.57 1.26,-1.27l0 -54.24c0,-0.7 -0.56,-1.27 -1.26,-1.27l-28.47 0c-1.83,0 -3.55,0.7 -4.85,1.92 -1.3,-1.22 -3.02,-1.92 -4.85,-1.92l-28.47 0c-0.7,0 -1.27,0.57 -1.27,1.27l0 54.24c0,0.7 0.57,1.27 1.27,1.27l0 0zm1.27 -54.25l27.2 0c1.53,0 2.95,0.76 3.8,2.04 0.23,0.35 0.63,0.57 1.05,0.57 0.42,0 0.82,-0.22 1.05,-0.57 0.85,-1.28 2.27,-2.04 3.8,-2.04l27.2 0 0 51.72 -27.2 0c-1.83,0 -3.55,0.69 -4.85,1.92 -1.3,-1.23 -3.02,-1.92 -4.85,-1.92l-27.2 0 0 -51.72z"/>
    <path class="fil1" d="M1219.19 150.73l-19.82 0c-0.7,0 -1.27,0.57 -1.27,1.27 0,0.69 0.57,1.26 1.27,1.26l19.82 0c0.7,0 1.27,-0.57 1.27,-1.26 0,-0.7 -0.57,-1.27 -1.27,-1.27z"/>
    <path class="fil1" d="M1219.19 155.79l-19.82 0c-0.7,0 -1.27,0.57 -1.27,1.27 0,0.7 0.57,1.26 1.27,1.26l19.82 0c0.7,0 1.27,-0.56 1.27,-1.26 0,-0.7 -0.57,-1.27 -1.27,-1.27l0 0z"/>
    <path class="fil1" d="M1219.19 160.85l-19.82 0c-0.7,0 -1.27,0.57 -1.27,1.27 0,0.7 0.57,1.26 1.27,1.26l19.82 0c0.7,0 1.27,-0.56 1.27,-1.26 0,-0.7 -0.57,-1.27 -1.27,-1.27l0 0z"/>
    <path class="fil1" d="M1219.19 165.91l-19.82 0c-0.7,0 -1.27,0.57 -1.27,1.27 0,0.7 0.57,1.26 1.27,1.26l19.82 0.01c0.7,0 1.27,-0.57 1.27,-1.27 0,-0.7 -0.57,-1.27 -1.27,-1.27l0 0z"/>
    <path class="fil1" d="M1219.19 170.98l-19.82 0c-0.7,0 -1.27,0.56 -1.27,1.26 0,0.7 0.57,1.27 1.27,1.27l19.82 0c0.7,0 1.27,-0.57 1.27,-1.27 0,-0.7 -0.57,-1.26 -1.27,-1.26l0 0z"/>
    <path class="fil1" d="M1199.37 178.57l9.91 0c0.7,0 1.26,-0.57 1.26,-1.27 0,-0.7 -0.56,-1.26 -1.26,-1.26l-9.91 0c-0.7,0 -1.27,0.56 -1.27,1.26 0,0.7 0.57,1.27 1.27,1.27z"/>
    <path class="fil1" d="M1219.19 181.1l-19.82 0c-0.7,0 -1.27,0.56 -1.27,1.26l0 10.38c0,0.7 0.57,1.27 1.27,1.27l19.82 0c0.7,0 1.27,-0.57 1.27,-1.27l0 -10.38c0,-0.7 -0.57,-1.26 -1.27,-1.26zm-1.26 10.38l-17.3 0 0 -7.85 17.3 0 0 7.85 0 0z"/>
    <path class="fil1" d="M1231 173.77l19.82 0c0.7,0 1.27,-0.57 1.27,-1.27 0,-0.7 -0.57,-1.26 -1.27,-1.26l-19.82 -0.01c-0.7,0 -1.26,0.57 -1.26,1.27 0,0.7 0.56,1.27 1.26,1.27l0 0z"/>
    <path class="fil1" d="M1231 178.83l19.82 0c0.7,0 1.27,-0.57 1.27,-1.27 0,-0.7 -0.57,-1.26 -1.27,-1.26l-19.82 0c-0.7,0 -1.26,0.56 -1.26,1.26 0,0.7 0.56,1.27 1.26,1.27l0 0z"/>
    <path class="fil1" d="M1231 183.89l19.82 0c0.7,0 1.27,-0.57 1.27,-1.27 0,-0.7 -0.57,-1.26 -1.27,-1.26l-19.82 0c-0.7,0 -1.26,0.56 -1.26,1.26 0,0.7 0.56,1.27 1.26,1.27l0 0z"/>
    <path class="fil1" d="M1231 188.95l19.82 0c0.7,0 1.27,-0.57 1.27,-1.27 0,-0.69 -0.57,-1.26 -1.27,-1.26l-19.82 0c-0.7,0 -1.26,0.57 -1.26,1.26 0,0.7 0.56,1.27 1.26,1.27z"/>
    <path class="fil1" d="M1231 194.01l9.91 0c0.7,0 1.27,-0.57 1.27,-1.27 0,-0.69 -0.57,-1.26 -1.27,-1.26l-9.91 0c-0.7,0 -1.26,0.57 -1.26,1.26 0,0.7 0.56,1.27 1.26,1.27z"/>
    <path class="fil1" d="M1231 166.17c-0.7,0 -1.26,0.57 -1.26,1.27 0,0.7 0.56,1.26 1.26,1.26 1.81,0 3.34,-0.45 4.65,-1.2 0.07,-0.03 0.13,-0.07 0.19,-0.11 2.12,-1.27 3.69,-3.29 5.07,-5.35 1.39,2.06 2.95,4.08 5.07,5.35 0.06,0.04 0.13,0.08 0.2,0.11 1.31,0.75 2.83,1.2 4.64,1.2 0.7,0 1.27,-0.56 1.27,-1.26 0,-0.7 -0.57,-1.27 -1.27,-1.27 -1.07,0 -2,-0.21 -2.84,-0.58l0 -11.75c0.84,-0.37 1.77,-0.58 2.84,-0.58 0.7,0 1.27,-0.57 1.27,-1.26 0,-0.7 -0.57,-1.27 -1.27,-1.27 -1.81,0 -3.33,0.46 -4.65,1.2 -0.06,0.04 -0.13,0.07 -0.19,0.12 -2.11,1.26 -3.68,3.28 -5.07,5.35 -1.38,-2.07 -2.95,-4.09 -5.07,-5.36 -0.06,-0.04 -0.12,-0.07 -0.19,-0.1 -1.31,-0.75 -2.83,-1.21 -4.65,-1.21 -0.7,0 -1.26,0.57 -1.26,1.27 0,0.69 0.56,1.26 1.26,1.26 1.07,0 2.01,0.21 2.85,0.58l0 11.75c-0.84,0.37 -1.78,0.58 -2.85,0.58l0 0zm14.45 -10.5l0 8.1c-1.09,-1.12 -2.05,-2.53 -3.03,-4.05 0.98,-1.53 1.94,-2.94 3.03,-4.05zm-9.07 0c1.09,1.11 2.04,2.52 3.03,4.05 -0.99,1.52 -1.94,2.93 -3.03,4.05l0 -8.1z"/>
   </g>
  </g>
  <g id="_1849139288496">
   <path class="fil1" d="M1662.08 393.44l-76.69 0c-0.7,0 -1.26,0.56 -1.26,1.26 0,0.7 0.56,1.27 1.26,1.27l24.44 0 0 2.58c-7.08,0.65 -12.64,6.61 -12.64,13.85l0 35.12 -1.67 -2.14c-0.43,-0.56 -1.23,-0.65 -1.78,-0.23 -0.55,0.43 -0.65,1.23 -0.22,1.78l3.94 5.05c0,0.01 0,0.01 0,0.01 0.03,0.03 0.05,0.07 0.08,0.09 0.01,0.01 0.01,0.01 0.01,0.02 0.04,0.03 0.07,0.06 0.11,0.09 0,0 0,0.01 0.01,0.01 0.03,0.02 0.06,0.05 0.1,0.07 0.01,0.01 0.01,0.01 0.02,0.02 0.03,0.01 0.06,0.03 0.09,0.05 0.01,0 0.03,0.01 0.04,0.01 0.03,0.02 0.06,0.03 0.09,0.04 0.01,0.01 0.02,0.01 0.03,0.02 0.04,0.01 0.07,0.02 0.1,0.02 0.01,0.01 0.03,0.01 0.04,0.01 0.03,0.01 0.07,0.02 0.1,0.02 0.01,0 0.02,0 0.03,0.01 0.05,0 0.1,0 0.14,0 0.05,0 0.1,0 0.14,0 0.01,-0.01 0.03,-0.01 0.04,-0.01 0.03,-0.01 0.07,-0.01 0.1,-0.02 0.01,0 0.02,0 0.04,-0.01 0.03,-0.01 0.06,-0.01 0.09,-0.02 0.01,-0.01 0.03,-0.01 0.04,-0.02 0.03,-0.01 0.06,-0.02 0.08,-0.04 0.02,0 0.03,-0.01 0.05,-0.02 0.02,-0.01 0.05,-0.02 0.08,-0.04 0.01,-0.01 0.02,-0.01 0.03,-0.02 0.03,-0.02 0.06,-0.04 0.08,-0.06 0.01,-0.01 0.02,-0.01 0.03,-0.02 0.04,-0.03 0.07,-0.06 0.1,-0.09 0.01,-0.01 0.02,-0.02 0.03,-0.03 0.02,-0.03 0.04,-0.05 0.06,-0.07 0,-0.01 0.01,-0.01 0.01,-0.01l3.93 -5.06c0.43,-0.55 0.33,-1.35 -0.22,-1.78 -0.55,-0.42 -1.34,-0.32 -1.77,0.23l-1.67 2.14 0 -27.14c2.52,3.58 6.68,5.92 11.37,5.92 4.7,0 8.86,-2.34 11.38,-5.92l0 18.19c0,7.24 5.57,13.2 12.64,13.84l0 2.59 -5.48 0c-0.64,0 -1.18,0.49 -1.25,1.13l-1.69 15.12c-0.04,0.36 0.08,0.72 0.32,0.98 0.24,0.27 0.58,0.43 0.94,0.43l16.86 0c0.7,0 1.26,-0.57 1.26,-1.27 0,-0.08 -0.01,-0.16 -0.02,-0.23l-1.68 -15.03c-0.07,-0.64 -0.61,-1.13 -1.25,-1.13l-5.48 0 0 -2.59c7.08,-0.64 12.64,-6.6 12.64,-13.84l0 -42.6 11.8 0c0.7,0 1.26,-0.57 1.26,-1.27 0,-0.7 -0.56,-1.26 -1.26,-1.26zm-18.69 76.69l-14.03 0 1.41 -12.6 11.22 0 1.4 12.6zm-32.3 -46.35c-6.27,0 -11.37,-5.11 -11.37,-11.38 0,-5.85 4.43,-10.67 10.11,-11.31l0 2.55c-4.28,0.62 -7.59,4.31 -7.59,8.76 0,4.88 3.97,8.85 8.85,8.85 3.74,0 7.09,-2.37 8.34,-5.9 0.24,-0.66 -0.11,-1.38 -0.76,-1.61 -0.66,-0.24 -1.39,0.11 -1.62,0.76 -0.89,2.53 -3.29,4.22 -5.96,4.22 -3.48,0 -6.32,-2.84 -6.32,-6.32 0,-3.49 2.84,-6.32 6.32,-6.32 2.67,0 5.07,1.69 5.96,4.21 0.24,0.66 0.96,1.01 1.62,0.77 0.65,-0.23 1,-0.95 0.77,-1.61 -1.11,-3.13 -3.87,-5.34 -7.08,-5.81l0 -2.55c5.68,0.64 10.11,5.46 10.11,11.31 0,6.27 -5.1,11.38 -11.38,11.38zm26.55 26.09l0 -2.55c3.21,-0.46 5.97,-2.68 7.08,-5.8 0.23,-0.66 -0.11,-1.38 -0.77,-1.62 -0.66,-0.23 -1.38,0.12 -1.62,0.77 -0.89,2.52 -3.28,4.22 -5.95,4.22 -3.49,0 -6.32,-2.84 -6.32,-6.32 0,-3.49 2.83,-6.32 6.32,-6.32 2.67,0 5.06,1.69 5.95,4.21 0.24,0.66 0.96,1 1.62,0.77 0.66,-0.23 1,-0.96 0.77,-1.61 -1.25,-3.53 -4.61,-5.9 -8.34,-5.9 -4.88,0 -8.85,3.97 -8.85,8.85 0,4.45 3.3,8.14 7.58,8.76l0 2.54c-5.68,-0.63 -10.11,-5.46 -10.11,-11.3 0,-6.28 5.1,-11.38 11.38,-11.38 6.27,0 11.37,5.1 11.37,11.38 0,5.84 -4.43,10.67 -10.11,11.3zm10.11 -19.28c-2.51,-3.58 -6.67,-5.93 -11.37,-5.93 -4.7,0 -8.86,2.35 -11.38,5.93l0 -18.19c0,-7.24 -5.56,-13.2 -12.64,-13.85l0 -2.58 35.39 0 0 34.62z"/>
   <g>
   </g>
   <g>
   </g>
   <g>
   </g>
   <g>
   </g>
   <g>
   </g>
   <g>
   </g>
   <g>
   </g>
   <g>
   </g>
   <g>
   </g>
   <g>
   </g>
   <g>
   </g>
   <g>
   </g>
   <g>
   </g>
   <g>
   </g>
   <g>
   </g>
  </g>
  <g id="_1849139281808">
   <g>
    <g>
     <path class="fil1" d="M815.77 442.57c-3.35,0 -6.07,2.72 -6.07,6.07 0,3.35 2.72,6.07 6.07,6.07 3.34,0 6.07,-2.72 6.07,-6.07 0,-3.35 -2.73,-6.07 -6.07,-6.07zm0 8.1c-1.12,0 -2.03,-0.91 -2.03,-2.03 0,-1.11 0.91,-2.02 2.03,-2.02 1.11,0 2.02,0.91 2.02,2.02 0,1.12 -0.91,2.03 -2.02,2.03z"/>
    </g>
   </g>
   <g>
    <g>
     <path class="fil1" d="M865.82 434.9l-7.3 -5.6 0 -3.4c2.36,-0.83 4.05,-3.08 4.05,-5.72 0,-1.86 -0.84,-3.6 -2.31,-4.76 0,0 -0.01,0 -0.01,0 0,0 0,-0.01 0,-0.01 -0.22,-0.16 -25.27,-19.76 -25.4,-19.86 -1.37,-1.04 -3.07,-1.67 -4.92,-1.67 -3.31,0 -6.15,2.01 -7.39,4.8 -0.03,0.06 -19.71,44.18 -19.71,44.18 -0.81,1.83 -1.22,3.77 -1.22,5.78l0 10.25 -2.03 0c-1.12,0 -2.02,0.91 -2.02,2.02 0,1.12 0.9,2.03 2.02,2.03 0.31,0 32.08,0 32.37,0 1.12,0 2.02,-0.91 2.02,-2.03 0,-1.11 -0.9,-2.02 -2.02,-2.02l-2.02 0 0 -10.07 5.93 -33.84c19.08,11.34 17.74,10.62 18.62,10.92l0 3.4 -7.31 5.6c0,0 0,0 0,0 -0.76,0.59 -1.01,1.63 -0.58,2.5 0,0 0.01,0.01 0.01,0.01l4.04 8.09c0.5,1 1.72,1.4 2.72,0.91 1,-0.5 1.4,-1.72 0.9,-2.72l-3.3 -6.6 5.54 -4.24 5.53 4.24 -3.29 6.6c-0.5,1 -0.1,2.22 0.9,2.72 1,0.49 2.21,0.09 2.71,-0.91l4.05 -8.09c0.43,-0.87 0.19,-1.92 -0.58,-2.51zm-39.94 23.99l-20.23 0 0 -10.25c0,-5.61 4.55,-10.11 10.12,-10.11 5.57,0 10.11,4.53 10.11,10.11l0 10.25zm1.41 -18.47c-2.57,-3.59 -6.78,-5.94 -11.52,-5.94 -1.81,0 -3.58,0.34 -5.21,0.99l12.82 -28.75c1.47,2.03 3.86,3.35 6.55,3.35 0.97,0 1.91,-0.18 2.77,-0.49 -0.08,0.5 -5.22,29.78 -5.41,30.84zm2.64 -34.4c-2.23,0 -4.05,-1.81 -4.05,-4.04 0,-2.24 1.82,-4.05 4.05,-4.05 2.23,0 4.04,1.81 4.04,4.05 0,2.23 -1.81,4.04 -4.04,4.04zm20.62 12.98l-13.94 -8.28c1.26,-7.15 1.29,-7.35 1.33,-7.62l15.3 11.97c-1.37,0.87 -2.37,2.28 -2.69,3.93zm5.95 3.21c-1.09,0 -2.02,-0.88 -2.02,-2.03 0,-1.11 0.9,-2.02 2.02,-2.02 1.11,0 2.02,0.91 2.02,2.02 0,1.12 -0.91,2.03 -2.02,2.03z"/>
    </g>
   </g>
   <g>
   </g>
   <g>
   </g>
   <g>
   </g>
   <g>
   </g>
   <g>
   </g>
   <g>
   </g>
   <g>
   </g>
   <g>
   </g>
   <g>
   </g>
   <g>
   </g>
   <g>
   </g>
   <g>
   </g>
   <g>
   </g>
   <g>
   </g>
   <g>
   </g>
  </g>
  <g id="_1849139278640">
   <g>
    <path class="fil1" d="M1028.57 343.43c0.85,0 1.54,-0.69 1.54,-1.54 0,-0.85 -0.69,-1.53 -1.54,-1.53 -19.8,0 -35.92,-16.12 -35.92,-35.92 0,-0.85 -0.68,-1.54 -1.53,-1.54 -0.85,0 -1.54,0.69 -1.54,1.54 0,21.5 17.49,38.99 38.99,38.99z"/>
    <path class="fil1" d="M935.2 358.82c-0.86,0 -1.54,0.69 -1.54,1.54 0,0.85 0.68,1.54 1.54,1.54 19.8,0 35.91,16.11 35.91,35.91 0,0.85 0.69,1.54 1.54,1.54 0.85,0 1.54,-0.69 1.54,-1.54 0,-21.5 -17.5,-38.99 -38.99,-38.99z"/>
    <path class="fil1" d="M984.96 368.23c0.85,0 1.54,-0.69 1.54,-1.54 0,-0.85 -0.69,-1.54 -1.54,-1.54l-1.54 0 0 -28.04 1.54 0c0.85,0 1.54,-0.69 1.54,-1.54 0,-0.85 -0.69,-1.54 -1.54,-1.54l-1.54 0 0 -12.49 1.54 0c0.85,0 1.54,-0.68 1.54,-1.54 0,-0.84 -0.69,-1.53 -1.54,-1.53l-1.54 0 0 -12.49 1.54 0c0.85,0 1.54,-0.69 1.54,-1.54 0,-0.85 -0.69,-1.54 -1.54,-1.54l-6.16 0c-0.85,0 -1.54,0.69 -1.54,1.54 0,0.85 0.69,1.54 1.54,1.54l1.54 0 0 12.49 -1.54 0c-0.85,0 -1.54,0.68 -1.54,1.53 0,0.85 0.69,1.54 1.54,1.54l1.54 0 0 12.49 -1.54 0c-0.85,0 -1.54,0.69 -1.54,1.54 0,0.85 0.69,1.54 1.54,1.54l1.54 0 0 12.48 -12.48 0 0 -1.54c0,-0.85 -0.69,-1.54 -1.54,-1.54 -0.85,0 -1.54,0.69 -1.54,1.54l0 1.54 -12.48 0 0 -1.54c0,-0.85 -0.69,-1.54 -1.54,-1.54 -0.85,0 -1.54,0.69 -1.54,1.54l0 1.54 -12.49 0 0 -1.54c0,-0.85 -0.68,-1.54 -1.53,-1.54 -0.86,0 -1.54,0.69 -1.54,1.54l0 6.16c0,0.85 0.68,1.54 1.54,1.54 0.85,0 1.53,-0.69 1.53,-1.54l0 -1.54 12.49 0 0 1.54c0,0.85 0.69,1.54 1.54,1.54 0.85,0 1.54,-0.69 1.54,-1.54l0 -1.54 12.48 0 0 1.54c0,0.85 0.69,1.54 1.54,1.54 0.85,0 1.54,-0.69 1.54,-1.54l0 -1.54 12.48 0 0 12.48 -1.54 0c-0.85,0 -1.54,0.69 -1.54,1.54 0,0.85 0.69,1.54 1.54,1.54l1.54 0 0 12.48 -1.54 0c-0.85,0 -1.54,0.69 -1.54,1.54 0,0.85 0.69,1.54 1.54,1.54l1.54 0 0 12.49 -1.54 0c-0.85,0 -1.54,0.68 -1.54,1.53 0,0.85 0.69,1.54 1.54,1.54l6.16 0c0.85,0 1.54,-0.69 1.54,-1.54 0,-0.84 -0.69,-1.53 -1.54,-1.53l-1.54 0 0 -12.49 1.54 0c0.85,0 1.54,-0.69 1.54,-1.54 0,-0.85 -0.69,-1.54 -1.54,-1.54l-1.54 0 0 -12.48 1.54 0z"/>
    <path class="fil1" d="M1028.57 346.51c-0.85,0 -1.54,0.69 -1.54,1.54l0 1.54 -12.49 0 0 -1.54c0,-0.85 -0.68,-1.54 -1.53,-1.54 -0.85,0 -1.54,0.69 -1.54,1.54l0 1.54 -12.49 0 0 -1.54c0,-0.85 -0.69,-1.54 -1.54,-1.54 -0.85,0 -1.54,0.69 -1.54,1.54l0 1.54 -7.86 0c-0.85,0 -1.54,0.69 -1.54,1.54 0,0.85 0.69,1.54 1.54,1.54l7.86 0 0 1.54c0,0.85 0.69,1.54 1.54,1.54 0.85,0 1.54,-0.69 1.54,-1.54l0 -1.54 12.49 0 0 1.54c0,0.85 0.68,1.54 1.54,1.54 0.85,0 1.53,-0.69 1.53,-1.54l0 -1.54 12.49 0 0 1.54c0,0.85 0.69,1.54 1.54,1.54 0.85,0 1.54,-0.69 1.54,-1.54l0 -6.16c0,-0.85 -0.69,-1.54 -1.54,-1.54l0 0z"/>
   </g>
  </g>
  <g id="_1849137915440">
   <g>
    <polygon class="fil1" points="1405.3,459.69 1405.3,456.83 1343.17,456.83 1343.17,394.7 1340.31,394.7 1340.31,456.83 1334.7,456.83 1334.7,459.69 1340.31,459.69 1340.31,465.3 1343.17,465.3 1343.17,459.69 "/>
    <path class="fil1" d="M1374.39 453.3c7.08,0 13.64,-5.72 18.48,-16.11 4.68,-10.04 7.25,-23.36 7.25,-37.51l-2.85 0c0,13.74 -2.48,26.63 -6.99,36.31 -4.34,9.32 -9.98,14.46 -15.89,14.46 -5.9,0 -11.55,-5.14 -15.89,-14.46 -4.5,-9.68 -6.98,-22.57 -6.98,-36.31l-2.86 0c0,14.15 2.58,27.47 7.25,37.51 4.84,10.39 11.4,16.11 18.48,16.11z"/>
    <polygon class="fil1" points="1405.55,464.22 1403.53,462.2 1401.69,464.04 1399.84,462.2 1397.82,464.22 1399.67,466.06 1397.82,467.91 1399.84,469.93 1401.69,468.08 1403.53,469.93 1405.55,467.91 1403.7,466.06 "/>
    <polygon class="fil1" points="1336.73,396.92 1334.89,398.77 1333.04,396.92 1331.02,398.94 1332.87,400.79 1331.02,402.63 1333.04,404.65 1338.75,398.94 "/>
   </g>
   <g>
   </g>
   <g>
   </g>
   <g>
   </g>
   <g>
   </g>
   <g>
   </g>
   <g>
   </g>
   <g>
   </g>
   <g>
   </g>
   <g>
   </g>
   <g>
   </g>
   <g>
   </g>
   <g>
   </g>
   <g>
   </g>
   <g>
   </g>
   <g>
   </g>
  </g>
  <g id="_1849137912496">
   <path class="fil1" d="M73.76 418.94l5.47 0 0 16.41 -5.47 0 0 -16.41zm0 0z"/>
   <path class="fil1" d="M73.76 399.8l5.47 0 0 13.67 -5.47 0 0 -13.67zm0 0z"/>
   <path class="fil1" d="M97.27 416.91c-2.71,-7.69 -5.27,-14.96 -8.26,-20.51 -2.37,-4.41 -6.26,-10.28 -12.52,-10.28l-16.41 0 0 5.47 6.95 0c-1.22,1.57 -2.22,3.28 -3.03,4.81 -2.97,5.54 -5.49,12.79 -8.16,20.48 -2.81,8.07 -5.8,16.68 -9.43,23.32l0 -48.61 8.2 0 0 -5.47 -8.2 0 0 -11.12 -5.47 0 0 11.12 -5.47 0 0 5.47 5.47 0 0 10.94 -5.47 0 0 5.47 5.47 0 0 10.94 -5.47 0 0 5.47 5.47 0 0 10.94 -5.47 0 0 5.47 5.47 0 0 7.07c-2.44,2.43 -5.15,3.87 -8.21,3.87l-2.73 0 0 5.47 10.94 0 0 11.12 5.47 0 0 -11.12 10.94 0 0 5.47 5.47 0 0 -5.47 10.94 0 0 5.47 5.47 0 0 -5.47 10.94 0 0 5.47 5.47 0 0 -5.47 10.94 0 0 5.47 5.47 0 0 -5.47 11.3 0 0 -5.47 -2.92 0c-10.89,0 -17.41,-18.52 -23.16,-34.85l0 0zm-50.86 33.11c6.57,-7.79 11.01,-21.04 14.6,-31.35 2.6,-7.47 5.05,-14.53 7.81,-19.69 2.66,-4.97 5.17,-7.39 7.67,-7.39 2.5,0 5.02,2.42 7.71,7.41 2.78,5.17 5.27,12.24 7.91,19.72 3.91,11.12 8.79,25.53 16.28,33.04l-29.16 0 0 -10.94 -5.47 0 0 10.94 -27.35 0 0 -1.74zm0 0z"/>
  </g>
  <g id="_1849137906960">
   <g>
    <g>
     <path class="fil1" d="M378.69 281.1c-1.78,-3.26 -3.6,-6.55 -5.42,-9.85 -0.06,-0.18 -0.15,-0.35 -0.27,-0.49 -2.47,-4.46 -4.96,-8.92 -7.39,-13.29 -3.31,-5.95 -6.74,-12.09 -10.06,-18.14 -0.27,-0.48 -0.78,-0.78 -1.33,-0.78l-17.76 0 0 -3.14c0,-0.84 -0.68,-1.51 -1.52,-1.51l-1.04 0 0 -3.6 7.23 0c0.84,0 1.52,-0.68 1.52,-1.52l0 -14.43c0,-0.84 -0.68,-1.52 -1.52,-1.52 -0.84,0 -1.52,0.68 -1.52,1.52l0 12.92 -14.45 0 0 -12.92c0,-0.84 -0.68,-1.52 -1.52,-1.52 -0.84,0 -1.52,0.68 -1.52,1.52l0 14.43c0,0.84 0.68,1.52 1.52,1.52l7.23 0 0 3.6 -1.04 0c-0.41,0 -0.79,0.16 -1.08,0.44 -0.28,0.28 -0.44,0.67 -0.44,1.07l0 3.14 -17.76 0c-0.54,0 -1.04,0.29 -1.31,0.76 -1.62,2.84 -3.22,5.72 -4.76,8.51 -1.54,2.77 -3.13,5.65 -4.74,8.47 -0.03,0.04 -0.05,0.08 -0.07,0.12 -0.48,1.06 -1,2.02 -1.56,3.03 -0.55,1 -1.12,2.03 -1.64,3.17 -4.08,7.03 -7.39,12.91 -10.4,18.5 0,0.01 0,0.01 0,0.01 0,0 0,0 0,0 0,0 0,0 0,0 0,0 0,0 0,0 0,0 0,0 0,0 0,0 0,0 0,0 -0.05,0.1 -0.09,0.2 -0.12,0.31 0,0 0,0 0,0 0,0 0,0 0,0 0,0 0,0 0,0 0,0 0,0 0,0 0,0.01 0,0.01 0,0.01 0,0 0,0 0,0 0,0 0,0 0,0 0,0 0,0 0,0 0,0 0,0 0,0 0,0 0,0 0,0 0,0 0,0.01 0,0.01 0,0 0,0 -0.01,0 0,0 0,0 0,0 0,0 0,0 0,0 0,0 0,0 0,0 0,0 0,0 0,0 0,0 0,0 0,0 0,0 0,0.01 0,0.01 0,0 0,0 0,0 0,0 0,0 0,0 -0.03,0.12 -0.04,0.25 -0.04,0.38 0,0 0,0 0,0 0,0 0,0 0,0 0,0 0,0 0,0 0,0 0,0 0,0 0,0.19 0.03,0.37 0.1,0.55l0 0c0,0 0,0 0,0 0,0 0,0 0,0 0,0 0,0 0,0 0,0 0,0 0,0 0,0 0,0 0,0 0,0 0,0 0,0 0,0 0,0 0,0 0,0 0,0.01 0,0.01 0.03,0.07 0.07,0.14 0.11,0.21 0.07,0.12 0.16,0.24 0.27,0.33 0,0 0,0.01 0,0.01 0,0 0,0 0,0 0,0 0,0 0,0l0 0c0,0 0,0 0.01,0 0,0 0,0 0,0 0,0 0,0 0,0 0,0 0,0 0,0 0,0 0,0 0,0 0,0 0,0 0,0 0,0 0,0 0,0 0,0 0,0.01 0,0.01 0,0 0,0 0,0 0,0 0,0 0,0 0,0 0.01,0 0.01,0 0,0 0,0 0,0 0,0 0,0 0,0 0,0 0,0 0,0 0,0 0,0 0,0 0,0 0,0 0,0 0,0 0,0 0,0 0,0.01 0,0.01 0,0.01 0,0 0,0 0,0 0,0 0,0 0.01,0 0,0 0,0 0,0 0,0 0,0 0,0 0,0 0,0 0,0 0,0 0,0 0,0 0,0 0,0 0,0 0,0 0,0 0,0 0,0 0,0 0,0 0,0 0.01,0 0.01,0.01 0,0 0,0 0,0 0,0 0,0 0,0 0,0 0,0 0,0 0,0 0,0 0,0 0,0 0,0 0,0 0,0 0,0 0,0 0,0 0,0 0,0 0,0 0,0 0,0 0,0 0,0 0,0 0,0 0.01,0.01 0.01,0.01 0,0 0,0 0,0 0,0 0,0 0,0 0,0 0,0 0,0 0,0 0,0 0,0 0,0 0,0 0,0 0,0 0,0 0,0 0,0 0,0 0,0 0,0 0.01,0 0.01,0 0,0 0,0 0,0 0.11,0.1 0.24,0.18 0.38,0.24 0,0 0,0 0,0l0 0c0,0 0.01,0 0.01,0l0 0c0,0 0,0 0,0l0 0c0,0 0,0 0,0l0 0c0,0 0,0 0,0l0 0c0,0 0.01,0 0.01,0 0,0 0,0 0,0 0,0.01 0,0.01 0,0.01 0,0 0,0 0,0 0,0 0,0 0,0 0,0 0,0 0,0 0,0 0,0 0.01,0 0,0 0,0 0,0 0,0 0,0 0,0 0,0 0,0 0,0 0,0 0,0 0,0 0,0 0,0 0,0 0,0 0,0 0,0 0,0 0,0 0,0 0.01,0 0.01,0 0.01,0 0,0 0,0 0,0 0,0 0,0 0,0 0,0.01 0,0.01 0.01,0.01 0,0 0,0 0,0 0,0 0,0 0,0 0,0 0,0 0,0 0,0 0.01,0 0.01,0 0,0 0,0 0,0 0,0 0,0 0,0 0,0 0,0 0.01,0 0,0 0,0 0,0 0,0 0,0 0,0.01 0,0 0,0 0,0 0,0 0.01,0 0.01,0 0,0 0,0 0,0 0,0 0,0 0,0 0,0 0,0 0.01,0 0,0 0,0 0,0 0,0 0,0 0,0 0,0 0,0 0,0 0,0 0.01,0 0.01,0.01 0,0 0,0 0,0 0,0 0,0 0,0 0,0 0.01,0 0.01,0 0,0 0,0 0,0 0,0 0,0 0,0 0,0 0,0 0,0 0.01,0 0.01,0 0.01,0 0,0 0,0 0,0 0,0 0,0 0,0 0,0 0.01,0 0.01,0 0,0 0,0.01 0,0.01 0,0 0,0 0,0 0,0 0,0 0.01,0 0,0 0,0 0,0 0,0 0,0 0,0 0,0 0,0 0,0 0.01,0 0.01,0 0.01,0 0,0 0,0 0,0 0,0 0,0 0,0 0.01,0 0.01,0 0.01,0 0,0 0,0 0,0 0,0 0,0 0,0 0,0 0,0 0.01,0 0,0 0,0.01 0,0.01 0,0 0,0 0,0 0,0 0,0 0.01,0 0,0 0,0 0,0 0,0 0,0 0,0 0,0 0,0 0,0 0,0 0.01,0 0.01,0 0,0 0,0 0,0 0,0 0,0 0,0 0,0 0.01,0 0.01,0 0,0 0,0 0,0 0,0 0,0 0,0 0,0 0,0 0,0 0.01,0 0.01,0 0.01,0 0,0 0,0 0,0 0,0 0,0 0,0 0.01,0 0.01,0 0.01,0.01 0,0 0,0 0,0 0,0 0,0 0,0 0,0 0,0 0.01,0 0,0 0,0 0,0 0,0 0,0 0,0 0,0 0.01,0 0.01,0 0.11,0.03 0.22,0.04 0.34,0.04 0,0 0,0 0,0 9.55,0.04 19.18,0.05 28.83,0.05 9.65,0 19.32,-0.01 28.94,-0.05 0.84,0 1.52,-0.68 1.51,-1.52 0,-0.84 -0.69,-1.51 -1.52,-1.51 -18.38,0.07 -36.94,0.07 -55.21,0.01 1.24,-2.28 2.54,-4.62 3.93,-7.08l11.38 0c0.84,0 1.52,-0.68 1.52,-1.52 0,-0.83 -0.68,-1.51 -1.52,-1.51l-9.67 0c1.12,-1.96 2.29,-4 3.54,-6.15 0.03,-0.04 0.05,-0.09 0.07,-0.13 0.48,-1.06 1.01,-2.02 1.57,-3.03 0.54,-1 1.11,-2.04 1.64,-3.17 0.06,-0.11 0.12,-0.23 0.18,-0.34l11.43 0c0.84,0 1.52,-0.68 1.52,-1.51 0,-0.84 -0.68,-1.52 -1.52,-1.52l-9.71 0c0.95,-1.71 1.9,-3.41 2.82,-5.08 1.4,-2.53 2.84,-5.14 4.31,-7.71l16.87 0 0 7.03c0,0.83 0.68,1.51 1.52,1.51l5.12 0c0.4,0 0.78,-0.16 1.07,-0.44 0.28,-0.29 0.44,-0.67 0.44,-1.07l0 -7.03 16.86 0c2.35,4.26 4.73,8.56 7.09,12.79l-9.7 0c-0.84,0 -1.52,0.68 -1.52,1.52 0,0.83 0.68,1.51 1.52,1.51l11.39 0c0.29,0.52 0.57,1.03 0.86,1.55 2.07,3.71 4.17,7.48 6.27,11.27l-9.61 0c-0.84,0 -1.52,0.68 -1.52,1.51 0,0.84 0.68,1.52 1.52,1.52l11.29 0c1.31,2.37 2.61,4.74 3.9,7.09 -6.93,0.05 -13.7,0.04 -20.63,-0.02 -0.84,-0.01 -1.52,0.67 -1.53,1.5 -0.01,0.84 0.67,1.53 1.5,1.53 3.9,0.04 7.74,0.06 11.6,0.06 3.85,0 7.71,-0.02 11.63,-0.06 0.27,0 0.53,-0.08 0.76,-0.21 0,0 0,0 0,0 0,0 0,0 0.01,-0.01 0,0 0,0 0,0 0,0 0,0 0,0l0 0c0,0 0,0 0,0 0,0 0,0 0,0 0,0 0,0 0,0 0,0 0,0 0,0 0,0 0,0 0.01,0 0,0 0,0 0,0 0,0 0,0 0,0 0,0 0,0 0,0 0,0 0,0 0,0 0,0 0,0 0,0 0,0 0,0 0,-0.01 0,0 0,0 0,0 0,0 0,0 0,0 0,0 0,0 0,0 0,0 0.01,0 0.01,0 0,0 0,0 0,0 0,0 0,0 0,0 0,0 0,0 0,0 0,0 0,0 0,0 0,0 0,0 0,0 0,0 0,0 0,0 0,0 0,0 0.01,0 0,0 0,0 0,0 0,0 0,0 0,0 0,-0.01 0,-0.01 0,-0.01 0,0 0,0 0,0 0,0 0,0 0,0 0,0 0,0 0,0 0,0 0,0 0,0 0,0 0,0 0,0 0,0 0,0 0,0 0,0 0.01,0 0.01,0 0,0 0,0 0,0 0,0 0,0 0,0 0,0 0,0 0,0 0,0 0,0 0,0l0 0c0,0 0,-0.01 0,-0.01 0.01,0 0.01,0 0.01,0l0 0c0,0 0,0 0,0 0,0 0,0 0,0 0,0 0,0 0,0 0,0 0,0 0,0 0,0 0,0 0,0 0.08,-0.06 0.16,-0.12 0.23,-0.19 0,0 0,0 0,0 0,0 0,0 0,0 0,0 0,0 0,0 0,0 0,0 0,0 0,0 0,0 0,0 0,0 0,0 0.01,0 0,-0.01 0,-0.01 0,-0.01 0,0 0,0 0,0 0.09,-0.09 0.16,-0.19 0.23,-0.3 0.01,-0.02 0.02,-0.05 0.04,-0.07 0,0 0,0 0,0 0,0 0,0 0,0 0,0 0,0 0,0 0,0 0,0 0,0l0 -0.01c0,0 0,0 0,0 0,0 0,0 0,0 0,0 0,0 0,0 0,0 0,0 0,0 0,0 0,0 0,0 0,0 0,0 0,0 0,0 0,-0.01 0.01,-0.01 0,0 0,0 0,0 0,0 0,0 0,0 0,0 0,0 0,0 0,0 0,0 0,0 0,0 0,0 0,0 0,0 0,0 0,0 0,0 0,0 0,0 0,0 0,-0.01 0,-0.01 0,0 0,0 0,0 0,0 0,0 0,0 0,0 0,0 0,0 0,0 0,0 0,0 0,0 0,0 0,0 0,0 0,0 0,0 0,0 0,0 0,-0.01 0,0 0,0 0.01,0 0,0 0,0 0,0 0,0 0,0 0,0 0,0 0,0 0,0 0,0 0,0 0,0 0,0 0,0 0,0 0,0 0,0 0,-0.01 0,0 0,0 0,0 0,0 0,0 0,0 0,0 0,0 0,0 0,0 0,0 0,0 0,0 0,0 0,0 0,0 0,0 0,0 0,-0.01 0,-0.01 0,-0.01 0,0 0,0 0,0 0,0 0,0 0,0 0,0 0,0 0,0 0,0 0,0 0,0 0,0 0,0 0,0 0,0 0,-0.01 0,-0.01 0,0 0,0 0,0 0,0 0,0 0,0 0,0 0,0 0,0 0,0 0,0 0,0 0,0 0.01,0 0.01,0 0,0 0,0 0,0 0,-0.01 0,-0.01 0,-0.01 0,0 0,0 0,0 0,0 0,0 0,0 0,0 0,0 0,0 0,0 0,0 0,0 0,0 0,0 0,0 0,0 0,0 0,-0.01 0,0 0,0 0,0 0,0 0,0 0,0 0,0 0,0 0,0 0,0 0,0 0,0 0,0 0,0 0,0 0,0 0,0 0,0 0,0 0,-0.01 0,-0.01 0,0 0,0 0,0 0,0 0,0 0,0 0,0 0,0 0,0 0,0 0,0 0,0 0,0 0,0 0,0 0,0 0,0 0,0 0.01,-0.01 0.01,-0.01 0.01,-0.01 0,0 0,0 0,0 0,0 0,0 0,0 0,0 0,0 0,0 0,0 0,0 0,0 0,0 0,0 0,0 0,0 0,0 0,0 0,0 0,0 0,0 0,-0.01 0,-0.01 0,-0.01 0,0 0,0 0,0 0,0 0,0 0,0 0,0 0,0 0,0 0,0 0,0 0,0 0,0 0,0 0,0 0,0 0,-0.01 0,-0.01 0,0 0,0 0,0 0,0 0,0 0,0 0,0 0,0 0,0 0,0 0,0 0,0 0,0 0.01,0 0.01,0 0,0 0,0 0,0 0,0 0,0 0,0 0,0 0,-0.01 0,-0.01 0,0 0,0 0,0 0,0 0,0 0,0 0,0 0,0 0,0 0,0 0,0 0,0 0,0 0,0 0,0 0,0 0,0 0,0 0,0 0,0 0,0 0,-0.01 0,-0.01 0,-0.01 0,0 0,0 0,0 0,0 0,0 0,0l0 0c0,0 0,0 0,0 0,0 0,0 0,0 0,0 0,0 0,0l0 -0.01c0,0 0,0 0,0l0 0c0,0 0,0 0.01,0 0,0 0,0 0,0 0,0 0,0 0,0 0,0 0,0 0,0 0,-0.01 0,-0.01 0,-0.01l0 0c0,0 0,0 0,0l0 0c0,0 0,0 0,0 0,0 0,0 0,-0.01 0.16,-0.4 0.13,-0.85 -0.08,-1.24zm-47.35 -34.01l0 -10.16 2.09 0 0 10.16 -2.09 0z"/>
    </g>
   </g>
   <g>
   </g>
   <g>
   </g>
   <g>
   </g>
   <g>
   </g>
   <g>
   </g>
   <g>
   </g>
   <g>
   </g>
   <g>
   </g>
   <g>
   </g>
   <g>
   </g>
   <g>
   </g>
   <g>
   </g>
   <g>
   </g>
   <g>
   </g>
   <g>
   </g>
  </g>
  <path class="fil1" d="M1417.37 49.28l-0.23 -1.43 -1.43 -0.23c-4.07,-0.65 -8.11,-0.98 -12.01,-0.98 -8.55,0 -16.49,1.55 -23.6,4.63 -6.99,3.02 -12.96,7.41 -17.77,13.04 -10.34,12.13 -14.37,29.19 -11.35,48.04l0.22 1.44 1.44 0.23c4.07,0.65 8.11,0.98 12.01,0.98 8.55,0 16.49,-1.56 23.6,-4.63 6.99,-3.02 12.96,-7.41 17.76,-13.04 10.35,-12.13 14.38,-29.2 11.36,-48.05l0 0zm-3.4 18.84l-7.14 -7.13 7.12 -7.11c0.52,4.93 0.52,9.7 0.02,14.24zm-9.97 -4.3l9.21 9.21c-0.31,1.55 -0.68,3.07 -1.11,4.55l-10.93 -10.92 2.83 -2.84zm-5.66 0l-10.92 -10.92c1.48,-0.43 2.99,-0.81 4.54,-1.12l9.21 9.21 -2.83 2.83zm12.77 -12.78l-7.11 7.12 -7.14 -7.14c2.23,-0.25 4.51,-0.38 6.84,-0.38 2.42,0 4.9,0.14 7.41,0.4zm-45.73 15.87c4.75,-5.57 10.81,-9.81 17.81,-12.56l12.31 12.31 -5.66 5.66 -2.83 -2.83 -2.83 2.83 2.83 2.83 -2.83 2.83 -2.84 -2.83 -2.83 2.83 2.83 2.84 -2.83 2.83 -2.83 -2.83 -2.84 2.83 2.84 2.83 -5.67 5.67 -12.31 -12.32c1.87,-4.77 4.44,-9.11 7.68,-12.92l0 0zm-1.03 30.9l-9.21 -9.21c0.31,-1.55 0.68,-3.06 1.11,-4.55l10.93 10.93 -2.83 2.83zm5.66 0l10.92 10.92c-1.48,0.44 -2.99,0.81 -4.54,1.13l-9.21 -9.22 2.83 -2.83zm-15.61 9.95c-0.52,-4.93 -0.52,-9.7 -0.02,-14.25l7.13 7.13 -7.11 7.12zm10.25 3.23c-2.42,0 -4.9,-0.13 -7.42,-0.4l7.12 -7.11 7.14 7.14c-2.23,0.25 -4.51,0.37 -6.84,0.37zm38.32 -16.26c-4.75,5.57 -10.81,9.81 -17.82,12.56l-12.31 -12.31 5.67 -5.66 2.83 2.83 2.84 -2.83 -2.84 -2.84 2.84 -2.83 2.83 2.83 2.83 -2.83 -2.83 -2.83 2.83 -2.84 2.83 2.84 2.83 -2.84 -2.83 -2.83 5.67 -5.66 12.31 12.31c-1.87,4.78 -4.44,9.12 -7.68,12.93l0 0zm0 0z"/>
  <g id="_1849137897744">
   <g>
    <g>
     <g>
      <path class="fil1" d="M117.01 73.81l-8.99 -9.03c0,0 0,0 0,0 0,0 0,0 0,0l-14.87 -14.96c-0.29,-0.29 -0.68,-0.45 -1.08,-0.45l-12.4 0 -17.24 0 -12.4 0c-0.4,0 -0.79,0.16 -1.07,0.45l-14.88 14.96c0,0 0,0 0,0 0,0 0,0 0,0l-3.68 3.7c0,0 0,0 0,0 0,0 0,0 0,0l-5.31 5.33c-0.58,0.59 -0.58,1.55 0,2.14l12.09 12.15c0.29,0.29 0.67,0.45 1.07,0.45 0.41,0 0.79,-0.16 1.08,-0.45l8.97 -9.02 0.15 -0.16 0 35.17c0,0.84 0.68,1.52 1.52,1.52l22.41 0c0.83,0 1.51,-0.68 1.51,-1.52 0,-0.83 -0.68,-1.51 -1.51,-1.51l-20.9 0 0 -37.32c0,-0.62 -0.37,-1.17 -0.94,-1.4 -0.56,-0.24 -1.21,-0.11 -1.65,0.33l-1.66 1.67 -9.95 -10.01 13.38 -13.46 11.05 0 8.16 10.1c0.29,0.36 0.72,0.56 1.18,0.56 0.46,0 0.89,-0.2 1.18,-0.56l8.16 -10.1 11.05 0 13.38 13.46 -9.95 10.01 -1.66 -1.67c-0.43,-0.44 -1.09,-0.57 -1.65,-0.33 -0.57,0.23 -0.94,0.78 -0.94,1.4l0 37.32 -8.87 0c-0.83,0 -1.51,0.68 -1.51,1.51 0,0.84 0.68,1.52 1.51,1.52l10.38 0c0.84,0 1.52,-0.68 1.52,-1.52l0 -35.17 9.12 9.18c0.29,0.29 0.68,0.45 1.08,0.45 0.4,0 0.79,-0.16 1.07,-0.45l12.09 -12.15c0.58,-0.59 0.58,-1.55 0,-2.14zm-78.76 11.08l-9.95 -10.01 3.16 -3.18 9.96 10.01 -3.17 3.18zm6.85 -6.89l-1.55 1.56 -9.95 -10.01 1.55 -1.55 9.95 10zm25.95 -18.87l-5.45 -6.74 10.9 0 -5.45 6.74zm25.95 18.87l9.96 -10 1.55 1.55 -9.96 10.01 -1.55 -1.56zm6.85 6.89l-3.16 -3.18 9.95 -10.01 3.16 3.18 -9.95 10.01z"/>
      <path class="fil1" d="M69.98 76.43c0,-3.86 -3.37,-5.96 -6.71,-5.96 -3.28,0 -6.51,2.01 -6.51,5.53 0,1.81 0.86,2.33 2.02,2.33 1.46,0 2.36,-0.81 2.36,-1.64 0,-1.59 1.01,-2.16 2.16,-2.16 1.61,0 2.19,1.12 2.19,2.04 0,3.66 -9.08,6.25 -9.08,10.77l0 2.8c0,0.83 1.16,1.38 1.96,1.38l10.26 0c0.72,0 1.35,-0.95 1.35,-1.99 0,-1.03 -0.63,-1.93 -1.35,-1.93l-7.55 0 0 -0.26c0,-2.62 8.9,-4.66 8.9,-10.91z"/>
      <path class="fil1" d="M71.43 85.42l0 0.34c0,4.29 3.11,5.93 7.08,5.93 3.98,0 7.06,-1.64 7.06,-5.93l0 -0.34c0,-2.97 -1.41,-4.7 -3.54,-5.42 1.7,-0.58 2.85,-2.02 2.85,-4.41 0,-3.6 -2.65,-5.12 -6.37,-5.12 -3.71,0 -6.36,1.52 -6.36,5.12 0,2.39 1.15,3.83 2.85,4.41 -2.13,0.72 -3.57,2.45 -3.57,5.42zm7.08 -11.35c1.3,0 2.05,0.63 2.05,2.1 0,1.5 -0.75,2.07 -2.05,2.07 -1.29,0 -2.04,-0.57 -2.04,-2.07 0,-1.47 0.75,-2.1 2.04,-2.1zm-2.59 10.51c0,-1.87 0.98,-2.74 2.59,-2.74 1.62,0 2.57,0.87 2.57,2.74l0 0.63c0,1.93 -0.92,2.88 -2.57,2.88 -1.58,0 -2.59,-0.89 -2.59,-2.88l0 -0.63z"/>
     </g>
    </g>
   </g>
   <g>
   </g>
   <g>
   </g>
   <g>
   </g>
   <g>
   </g>
   <g>
   </g>
   <g>
   </g>
   <g>
   </g>
   <g>
   </g>
   <g>
   </g>
   <g>
   </g>
   <g>
   </g>
   <g>
   </g>
   <g>
   </g>
   <g>
   </g>
   <g>
   </g>
  </g>
  <g id="_1849137890672">
   <g>
    <g>
     <path class="fil1" d="M1265.89 294.77c-3.3,0 -5.99,2.68 -5.99,5.99l0 29.65 -17.88 0c-0.96,0 -1.73,0.77 -1.73,1.73 0,0.95 0.77,1.73 1.73,1.73l19.61 0c0.95,0 1.73,-0.78 1.73,-1.73l0 -31.38c0,-1.4 1.13,-2.54 2.53,-2.54 1.4,0 2.53,1.14 2.53,2.54l0 38.02 -19.87 0c-0.95,0 -1.73,0.77 -1.73,1.73l0 17.42 -5.06 0 0 -17.42c0,-0.96 -0.78,-1.73 -1.73,-1.73l-21.3 0 0 -38.02c0,-1.4 1.14,-2.54 2.54,-2.54 1.4,0 2.53,1.14 2.53,2.54l0 31.38c0,0.95 0.78,1.73 1.73,1.73l7.11 0c0.95,0 1.73,-0.78 1.73,-1.73 0,-0.96 -0.78,-1.73 -1.73,-1.73l-5.38 0 0 -29.65c0,-3.31 -2.69,-5.99 -5.99,-5.99 -3.31,0 -5.99,2.68 -5.99,5.99l0 39.75c0,0.95 0.77,1.72 1.73,1.72l21.29 0 0 15.7 -4.29 0c-0.95,0 -1.73,0.77 -1.73,1.72l0 39.39c0,0.96 0.78,1.73 1.73,1.73l19.14 0c0.95,0 1.73,-0.77 1.73,-1.73l0 -39.39c0,-0.95 -0.78,-1.72 -1.73,-1.72l-2.87 0 0 -15.7 19.87 0c0.96,0 1.73,-0.77 1.73,-1.72l0 -39.75c0,-3.31 -2.69,-5.99 -5.99,-5.99zm-30.15 84.59l15.68 0 0 3.83 -15.68 0 0 -3.83zm15.68 17.95l-15.68 0 0 -10.66 15.68 0 0 10.66zm0 -35.93l0 14.53 -15.68 0 0 -14.53 4.29 0 8.52 0 2.87 0z"/>
    </g>
   </g>
   <g>
   </g>
   <g>
   </g>
   <g>
   </g>
   <g>
   </g>
   <g>
   </g>
   <g>
   </g>
   <g>
   </g>
   <g>
   </g>
   <g>
   </g>
   <g>
   </g>
   <g>
   </g>
   <g>
   </g>
   <g>
   </g>
   <g>
   </g>
   <g>
   </g>
  </g>
  <g id="_1849137889392">
   <g>
    <path class="fil1" d="M886.09 52.73l-11.41 0 0 -3.81 6.34 0c0.7,0 1.27,-0.57 1.27,-1.27l0 -5.07c0,-0.7 -0.57,-1.27 -1.27,-1.27l-15.22 0c-0.7,0 -1.27,0.57 -1.27,1.27l0 5.07c0,0.7 0.57,1.27 1.27,1.27l6.34 0 0 3.81 -22.83 0 0 -3.81 6.34 0c0.7,0 1.27,-0.57 1.27,-1.27l0 -5.07c0,-0.7 -0.57,-1.27 -1.27,-1.27l-15.22 0c-0.7,0 -1.27,0.57 -1.27,1.27l0 5.07c0,0.7 0.57,1.27 1.27,1.27l6.34 0 0 3.81 -22.83 0 0 -3.81 6.34 0c0.7,0 1.27,-0.57 1.27,-1.27l0 -5.07c0,-0.7 -0.57,-1.27 -1.27,-1.27l-15.22 0c-0.7,0 -1.27,0.57 -1.27,1.27l0 5.07c0,0.7 0.57,1.27 1.27,1.27l6.34 0 0 3.81 -11.41 0c-0.7,0 -1.27,0.57 -1.27,1.27l0 50.73c0,0.71 0.57,1.27 1.27,1.27l3.8 0 0 11.42c0,0.7 0.57,1.27 1.27,1.27l5.07 0c0.7,0 1.27,-0.57 1.27,-1.27l0 -11.42 53.28 0 0 11.42c0,0.7 0.56,1.27 1.27,1.27l5.07 0c0.7,0 1.27,-0.57 1.27,-1.27l0 -11.42 3.8 0c0.7,0 1.27,-0.56 1.27,-1.27l0 -50.73c0,-0.7 -0.57,-1.27 -1.27,-1.27l0 0zm-19.02 -6.34l0 -2.54 12.68 0 0 2.54 -12.68 0zm-25.37 0l0 -2.54 12.68 0 0 2.54 -12.68 0zm-25.37 0l0 -2.54 12.68 0 0 2.54 -12.68 0zm2.53 69.76l-2.53 0 0 -10.15 2.53 0 0 10.15zm60.89 0l-2.54 0 0 -10.15 2.54 0 0 10.15zm5.07 -12.68l-73.57 0 0 -48.2 73.57 0 0 48.2zm0 0z"/>
    <path class="fil1" d="M864.53 60.34l11.42 0c0.7,0 1.26,-0.57 1.26,-1.27 0,-0.7 -0.56,-1.27 -1.26,-1.27l-11.42 0c-0.7,0 -1.27,0.57 -1.27,1.27 0,0.7 0.57,1.27 1.27,1.27l0 0zm0 0z"/>
    <path class="fil1" d="M879.75 60.34l1.27 0c0.7,0 1.27,-0.57 1.27,-1.27 0,-0.7 -0.57,-1.27 -1.27,-1.27l-1.27 0c-0.7,0 -1.27,0.57 -1.27,1.27 0,0.7 0.57,1.27 1.27,1.27l0 0zm0 0z"/>
    <path class="fil1" d="M834.5 80.53c0.4,0.02 0.79,-0.16 1.04,-0.49 1.03,-1.31 2.84,-1.74 4.35,-1.02 1.51,0.72 2.32,2.38 1.95,4.02 -0.37,1.63 -1.82,2.78 -3.49,2.78 -0.35,0.01 -0.7,-0.05 -1.04,-0.17 -0.43,-0.15 -0.92,-0.06 -1.26,0.25 -0.35,0.3 -0.5,0.77 -0.41,1.22 0.79,3.54 3.92,6.07 7.56,6.09 0.17,0 0.35,0 0.53,-0.02 0.95,2.04 2.04,4.01 3.25,5.91 0.24,0.35 0.63,0.57 1.06,0.57 0.42,0 0.82,-0.22 1.06,-0.57 1.21,-1.9 2.3,-3.87 3.25,-5.91 0.18,0.01 0.36,0.02 0.53,0.02 3.63,-0.02 6.77,-2.54 7.56,-6.09 0.09,-0.45 -0.06,-0.92 -0.41,-1.22 -0.34,-0.31 -0.83,-0.4 -1.26,-0.24 -0.34,0.11 -0.69,0.17 -1.04,0.17 -1.68,0 -3.13,-1.16 -3.5,-2.79 -0.36,-1.63 0.45,-3.3 1.96,-4.02 1.51,-0.72 3.32,-0.29 4.35,1.03 0.24,0.32 0.64,0.5 1.04,0.48 0.41,-0.01 0.78,-0.22 1.01,-0.56 0.82,-1.24 1.26,-2.69 1.25,-4.18 -0.01,-4.26 -3.47,-7.72 -7.73,-7.72 -1.18,0 -2.34,0.27 -3.39,0.8 -1.04,-2.32 -2.25,-4.55 -3.62,-6.69 -0.25,-0.34 -0.64,-0.53 -1.06,-0.53 -0.42,0 -0.81,0.19 -1.06,0.53 -1.37,2.14 -2.58,4.37 -3.62,6.69 -1.05,-0.53 -2.21,-0.8 -3.39,-0.8 -4.27,0 -7.72,3.46 -7.73,7.72 -0.01,1.49 0.43,2.94 1.25,4.18 0.23,0.34 0.6,0.54 1.01,0.56l0 0zm5.47 -9.93c1.16,0 2.28,0.4 3.18,1.13 0.31,0.25 0.72,0.34 1.11,0.24 0.38,-0.1 0.7,-0.38 0.85,-0.75 0.85,-2.03 1.83,-4 2.93,-5.9 1.1,1.9 2.08,3.87 2.93,5.9 0.15,0.37 0.47,0.64 0.85,0.74 0.39,0.1 0.8,0.02 1.11,-0.23 0.9,-0.73 2.02,-1.13 3.18,-1.13 1.62,0 3.14,0.76 4.12,2.05 0.98,1.28 1.31,2.95 0.89,4.51 -2.13,-1.42 -4.91,-1.36 -6.98,0.13 -2.07,1.5 -2.99,4.13 -2.3,6.59 0.68,2.47 2.82,4.24 5.37,4.46 -0.97,1.45 -2.59,2.32 -4.33,2.33 -0.35,-0.01 -0.7,-0.04 -1.05,-0.11 -0.58,-0.11 -1.15,0.19 -1.4,0.72 -0.84,1.89 -1.73,3.53 -2.39,4.67 -0.88,-1.51 -1.68,-3.07 -2.4,-4.67 -0.2,-0.45 -0.65,-0.74 -1.15,-0.74 -0.08,0 -0.16,0 -0.24,0.02 -0.35,0.07 -0.7,0.1 -1.05,0.11 -1.74,-0.01 -3.37,-0.88 -4.33,-2.33 2.55,-0.22 4.69,-1.99 5.37,-4.46 0.69,-2.46 -0.23,-5.09 -2.3,-6.59 -2.07,-1.49 -4.85,-1.55 -6.98,-0.13 -0.42,-1.56 -0.1,-3.23 0.89,-4.51 0.98,-1.29 2.5,-2.05 4.12,-2.05l0 0zm0 0z"/>
   </g>
  </g>
  <g id="_1849137886864">
   <g>
    <path class="fil1" d="M1523.22 139.98c-2.62,-2.63 -6.9,-2.63 -9.53,0l-26.87 26.84 -26.83 -26.84c-2.63,-2.63 -6.91,-2.63 -9.53,0 -2.63,2.63 -2.63,6.91 0,9.54l26.84 26.85 -6.56 6.56 -3.18 -3.18 -3.17 3.18 3.17 3.18 -19.07 19.07 9.54 9.53 6.36 -6.35 3.17 3.18 3.18 -3.18 -3.18 -3.18 3.18 -3.18 3.18 3.18 3.18 -3.18 -3.18 -3.18 3.18 -3.18 3.18 3.18 3.18 -3.18 -3.18 -3.18 6.55 -6.55 6.58 6.58 -3.18 3.18 3.18 3.18 3.18 -3.18 19.07 19.07 9.54 -9.53 -6.36 -6.36 3.18 -3.18 -3.18 -3.18 -3.18 3.18 -3.17 -3.18 3.17 -3.18 -3.18 -3.17 -3.17 3.17 -3.18 -3.18 3.17 -3.17 -3.17 -3.18 -3.18 3.18 -6.59 -6.6 26.86 -26.84c2.63,-2.63 2.63,-6.91 0,-9.54l0 0zm-65.19 68.38l-3.18 -3.18 15.89 -15.9 3.18 3.18 -15.89 15.9zm19.07 -19.08l-3.18 -3.17 6.56 -6.56 3.18 3.18 -6.56 6.55zm41.74 15.93l-3.18 3.18 -15.89 -15.9 3.18 -3.18 15.89 15.9zm-19.07 -19.08l-3.18 3.18 -42.96 -42.97c-0.87,-0.88 -0.87,-2.3 0,-3.18 0.88,-0.87 2.31,-0.87 3.18,0l42.96 42.97zm20.28 -39.79l-26.87 26.84 -3.18 -3.18 26.87 -26.84c0.87,-0.87 2.3,-0.87 3.18,0 0.87,0.88 0.87,2.3 0,3.18l0 0z"/>
   </g>
  </g>
  <g id="_1849137877456">
   <g>
    <path class="fil1" d="M424.44 151.38l5.73 0c0.67,0 1.2,-0.54 1.2,-1.21 0,-0.66 -0.53,-1.2 -1.2,-1.2l-3.63 0c0.47,-0.76 0.98,-1.51 1.51,-2.24l18.84 0c0.66,0 1.2,-0.54 1.2,-1.21 0,-0.66 -0.54,-1.2 -1.2,-1.2l-19.45 0c-0.38,0 -0.73,0.18 -0.96,0.48 -1.15,1.53 -2.19,3.15 -3.09,4.8 -0.21,0.37 -0.2,0.82 0.02,1.19 0.21,0.36 0.6,0.59 1.03,0.59z"/>
    <path class="fil1" d="M420.67 161.04l17.37 0c0.67,0 1.21,-0.54 1.21,-1.2 0,-0.67 -0.54,-1.21 -1.21,-1.21l-15.81 0c0.22,-0.75 0.46,-1.5 0.72,-2.24l7.22 0c0.67,0 1.2,-0.54 1.2,-1.21 0,-0.66 -0.53,-1.2 -1.2,-1.2l-8.05 0c-0.5,0 -0.95,0.31 -1.13,0.77 -0.6,1.57 -1.1,3.19 -1.49,4.8 -0.09,0.36 -0.01,0.74 0.22,1.03 0.23,0.29 0.58,0.46 0.95,0.46z"/>
    <path class="fil1" d="M441.17 183.45c0,-0.66 -0.53,-1.2 -1.2,-1.2l-17.03 0c-0.26,-0.74 -0.5,-1.49 -0.72,-2.25l32.78 0c0.66,0 1.2,-0.54 1.2,-1.2 0,-0.67 -0.54,-1.2 -1.2,-1.2l-34.34 0c-0.37,0 -0.72,0.16 -0.94,0.45 -0.23,0.29 -0.31,0.67 -0.23,1.03 0.4,1.63 0.9,3.25 1.49,4.8 0.18,0.46 0.63,0.77 1.13,0.77l17.86 0c0.67,0 1.2,-0.54 1.2,-1.2z"/>
    <path class="fil1" d="M455.49 193.11c0,-0.66 -0.54,-1.2 -1.21,-1.2l-26.25 0c-0.53,-0.74 -1.03,-1.49 -1.51,-2.25l3.65 0c0.67,0 1.2,-0.54 1.2,-1.2 0,-0.67 -0.53,-1.2 -1.2,-1.2l-5.75 0c-0.42,0 -0.81,0.22 -1.03,0.59 -0.22,0.36 -0.22,0.81 -0.02,1.19 0.9,1.64 1.94,3.25 3.09,4.79 0.23,0.3 0.58,0.48 0.96,0.48l26.86 0c0.67,0 1.21,-0.54 1.21,-1.2z"/>
    <path class="fil1" d="M459.24 128.41c-10.53,0 -20.53,3.99 -28.16,11.23 -0.36,0.34 -0.48,0.86 -0.29,1.32 0.18,0.46 0.62,0.76 1.11,0.76l10.8 0c0.66,0 1.2,-0.54 1.2,-1.21 0,-0.66 -0.54,-1.2 -1.2,-1.2l-7.6 0c6.83,-5.5 15.29,-8.49 24.14,-8.49 20.83,0 37.85,16.62 38.49,37.31l-76.99 0c0.03,-0.7 0.06,-1.39 0.12,-2.08l35.09 0c0.67,0 1.21,-0.54 1.21,-1.21 0,-0.66 -0.54,-1.2 -1.21,-1.2l-36.18 0c-0.61,0 -1.12,0.46 -1.19,1.07 -0.17,1.52 -0.26,3.07 -0.26,4.62 0,1.52 0.08,3.07 0.25,4.59 0.07,0.61 0.59,1.07 1.2,1.07l26.14 0c0.67,0 1.21,-0.54 1.21,-1.2 0,-0.67 -0.54,-1.2 -1.21,-1.2l-25.05 0c-0.06,-0.69 -0.09,-1.37 -0.12,-2.06l76.99 0c-0.03,0.69 -0.06,1.38 -0.12,2.06l-14.82 0c-0.67,0 -1.21,0.53 -1.21,1.2 0,0.66 0.54,1.2 1.21,1.2l14.54 0c-0.13,0.88 -0.29,1.75 -0.48,2.61l-6.73 0c-0.66,0 -1.2,0.53 -1.2,1.2 0,0.66 0.54,1.2 1.2,1.2l6.12 0c-0.73,2.54 -1.72,4.96 -2.93,7.26l-19.29 0c-0.66,0 -1.2,0.53 -1.2,1.2 0,0.66 0.54,1.2 1.2,1.2l17.91 0c-6.81,10.91 -18.92,18.18 -32.7,18.18 -8.86,0 -17.33,-3 -24.15,-8.52l6.57 0c0.66,0 1.2,-0.54 1.2,-1.2 0,-0.67 -0.54,-1.2 -1.2,-1.2l-9.77 0c-0.49,0 -0.93,0.3 -1.12,0.75 -0.18,0.46 -0.06,0.98 0.29,1.32 7.64,7.26 17.64,11.25 28.18,11.25 22.57,0 40.92,-18.35 40.92,-40.91 0,-22.56 -18.35,-40.92 -40.91,-40.92z"/>
    <path class="fil1" d="M481.69 165.85c0.87,0 1.72,-0.14 2.53,-0.42 4.98,-1.71 7.27,-8.24 5.1,-14.55 -1.78,-5.15 -6.07,-8.76 -10.45,-8.76 -0.86,0 -1.71,0.15 -2.52,0.42 -4.98,1.72 -7.27,8.24 -5.1,14.55 1.77,5.16 6.07,8.76 10.44,8.76zm-4.56 -21.03c0.56,-0.19 1.14,-0.29 1.74,-0.29 3.37,0 6.73,2.93 8.17,7.13 1.74,5.06 0.12,10.22 -3.6,11.5 -0.56,0.19 -1.15,0.29 -1.75,0.29 -3.36,0 -6.72,-2.94 -8.17,-7.14 -1.74,-5.05 -0.12,-10.21 3.61,-11.49zm5.12 8.49c0.49,1.42 0,2.88 -1.09,3.25 -1.09,0.38 -2.36,-0.47 -2.85,-1.89 -0.49,-1.42 0,-2.88 1.08,-3.25 1.09,-0.38 2.37,0.47 2.86,1.89z"/>
   </g>
   <g>
   </g>
   <g>
   </g>
   <g>
   </g>
   <g>
   </g>
   <g>
   </g>
   <g>
   </g>
   <g>
   </g>
   <g>
   </g>
   <g>
   </g>
   <g>
   </g>
   <g>
   </g>
   <g>
   </g>
   <g>
   </g>
   <g>
   </g>
   <g>
   </g>
  </g>
  <g id="_1849137870032">
   <path class="fil1" d="M632.61 62.41l-9.42 -16.38c-0.81,-1.41 -2.61,-1.89 -4.01,-1.09 -1.41,0.81 -1.89,2.61 -1.08,4.01l9.03 15.71 0 12.85 -18.94 0 0 -1.59c0,-2.83 -1.53,-5.47 -3.98,-6.89l-7.85 -4.53c-1.2,-0.7 -2.58,-1.06 -3.97,-1.06 -1.4,0 -2.77,0.36 -3.98,1.06l-7.85 4.53c-2.45,1.42 -3.97,4.06 -3.97,6.89l0 1.59 -18.95 0 0 -12.85 9.04 -15.71c0.8,-1.4 0.32,-3.2 -1.08,-4 -1.41,-0.81 -3.2,-0.33 -4.01,1.08l-9.43 16.38c-0.25,0.45 -0.39,0.95 -0.39,1.47l0 16.12 0 16.12c0,0.52 0.14,1.02 0.39,1.47l9.43 16.38c0.54,0.95 1.53,1.48 2.54,1.48 0.5,0 1,-0.13 1.47,-0.39 1.4,-0.81 1.88,-2.61 1.08,-4.01l-9.04 -15.71 0 -11.96 6.57 0 0 3.85c0,1.62 1.31,2.93 2.93,2.93 1.63,0 2.94,-1.31 2.94,-2.93l0 -3.85 6.51 0 0 1.6c0,2.83 1.52,5.47 3.97,6.89l7.85 4.53c1.21,0.69 2.58,1.06 3.98,1.06 1.39,0 2.76,-0.37 3.97,-1.06l7.85 -4.53c2.45,-1.42 3.98,-4.06 3.98,-6.89l0 -1.6 6.5 0 0 3.85c0,1.62 1.32,2.93 2.94,2.93 1.62,0 2.93,-1.31 2.93,-2.93l0 -3.85 6.57 0 0 11.96 -9.03 15.71c-0.81,1.4 -0.33,3.2 1.08,4.01 0.46,0.26 0.96,0.39 1.46,0.39 1.01,0 2,-0.53 2.55,-1.48l9.42 -16.38c0.25,-0.45 0.39,-0.95 0.39,-1.47l0 -16.12 0 -16.12c0,-0.52 -0.14,-1.02 -0.39,-1.47zm-32.37 16.42l-15.61 0c-1.62,0 -2.94,-1.32 -2.94,-2.94 0,-1.62 1.32,-2.93 2.94,-2.93l15.61 0c1.62,0 2.93,1.31 2.93,2.93 0,1.62 -1.31,2.94 -2.93,2.94z"/>
   <g>
   </g>
   <g>
   </g>
   <g>
   </g>
   <g>
   </g>
   <g>
   </g>
   <g>
   </g>
   <g>
   </g>
   <g>
   </g>
   <g>
   </g>
   <g>
   </g>
   <g>
   </g>
   <g>
   </g>
   <g>
   </g>
   <g>
   </g>
   <g>
   </g>
  </g>
  <g id="_1849137863728">
   <path class="fil1" d="M352.56 418.81l-14.07 14.08c-0.61,-1.2 -1.42,-2.32 -2.41,-3.32 -0.99,-0.98 -2.11,-1.79 -3.31,-2.41l14.07 -14.07c1.06,0.82 2.08,1.71 3.04,2.68 0.96,0.96 1.85,1.98 2.68,3.04zm-31.29 25.57c1.45,1.45 3.38,2.25 5.44,2.25 2.05,0 3.99,-0.8 5.44,-2.25 3,-3 3,-7.88 0,-10.88 -1.45,-1.45 -3.39,-2.25 -5.44,-2.25 -2.06,0 -3.99,0.8 -5.44,2.25 -3,3 -3,7.88 0,10.88zm50.46 -8.45c0,-0.01 -0.03,-0.03 -0.03,-0.03 -0.83,-0.83 -1.93,-1.29 -3.1,-1.29 -1.17,0 -2.27,0.46 -3.1,1.29l-3.52 3.51 -0.05 0 9.11 -21.26c0.45,-1.04 0.22,-2.25 -0.59,-3.06l-3.16 -3.16 -27.35 27.36c-0.08,3.27 -1.37,6.52 -3.86,9.02 -2.51,2.5 -5.83,3.88 -9.37,3.88 -3.54,0 -6.86,-1.38 -9.37,-3.88 -5.16,-5.17 -5.16,-13.57 0,-18.74 2.42,-2.42 5.62,-3.78 9.03,-3.87l27.35 -27.34 -3.16 -3.16c-0.81,-0.81 -2.02,-1.04 -3.06,-0.59l-30.24 12.95c-2.81,0.85 -5.51,2.07 -8.02,3.65 -0.71,0.45 -1.18,1.2 -1.27,2.04 -0.08,0.67 0.09,1.33 0.46,1.87l-5.54 5.54c-0.54,-0.37 -1.21,-0.54 -1.87,-0.46 -0.84,0.09 -1.59,0.56 -2.04,1.27 -3.9,6.19 -5.63,13.62 -4.86,20.93 0.78,7.43 4.13,14.43 9.42,19.71 6.18,6.19 14.41,9.6 23.16,9.6 0,0 0,0 0,0 6.21,0 12.25,-1.74 17.48,-5.04 0.71,-0.45 1.18,-1.2 1.27,-2.04 0.08,-0.66 -0.09,-1.33 -0.46,-1.87l5.54 -5.54c0.54,0.37 1.2,0.54 1.87,0.46 0.84,-0.09 1.59,-0.56 2.04,-1.27 1.35,-2.15 2.44,-4.44 3.25,-6.83l5.13 0.19c0.03,0 0.07,0 0.1,0 0.77,0 1.48,-0.32 1.98,-0.84 0.02,-0.01 0.03,-0.03 0.05,-0.04l6.77 -6.77c0.83,-0.83 1.29,-1.93 1.29,-3.1 0,-1.17 -0.46,-2.27 -1.28,-3.09z"/>
   <g>
   </g>
   <g>
   </g>
   <g>
   </g>
   <g>
   </g>
   <g>
   </g>
   <g>
   </g>
   <g>
   </g>
   <g>
   </g>
   <g>
   </g>
   <g>
   </g>
   <g>
   </g>
   <g>
   </g>
   <g>
   </g>
   <g>
   </g>
   <g>
   </g>
  </g>
  <g id="_1849137855760">
   <path class="fil1" d="M1369.77 313.35c-23.48,0 -42.59,-19.1 -42.59,-42.58 0,-23.48 19.11,-42.58 42.59,-42.58 23.48,0 42.58,19.1 42.58,42.58 0,23.48 -19.1,42.58 -42.58,42.58zm0 -83.42c-22.53,0 -40.85,18.32 -40.85,40.84 0,22.52 18.32,40.85 40.85,40.85 22.52,0 40.84,-18.33 40.84,-40.85 0,-22.52 -18.32,-40.84 -40.84,-40.84zm0 74.21c-18.4,0 -33.37,-14.97 -33.37,-33.37 0,-18.4 14.97,-33.37 33.37,-33.37 18.4,0 33.37,14.97 33.37,33.37 0,18.4 -14.97,33.37 -33.37,33.37zm0 -65c-17.45,0 -31.64,14.19 -31.64,31.63 0,17.44 14.19,31.63 31.64,31.63 17.44,0 31.63,-14.19 31.63,-31.63 0,-17.44 -14.19,-31.63 -31.63,-31.63zm0 55.01c-12.9,0 -23.39,-10.49 -23.39,-23.38 0,-12.89 10.49,-23.38 23.39,-23.38 12.89,0 23.38,10.49 23.38,23.38 0,12.89 -10.49,23.38 -23.38,23.38zm0 -45.02c-11.94,0 -21.65,9.71 -21.65,21.64 0,11.94 9.71,21.64 21.65,21.64 11.93,0 21.64,-9.7 21.64,-21.64 0,-11.93 -9.71,-21.64 -21.64,-21.64zm8.24 33.09c-0.14,0 -0.28,-0.03 -0.41,-0.1l-7.83 -4.12 -7.84 4.12c-0.29,0.16 -0.65,0.13 -0.91,-0.06 -0.27,-0.2 -0.41,-0.53 -0.35,-0.85l1.5 -8.73 -6.34 -6.18c-0.24,-0.23 -0.32,-0.57 -0.22,-0.89 0.1,-0.31 0.37,-0.54 0.7,-0.59l8.76 -1.27 3.92 -7.94c0.14,-0.3 0.45,-0.48 0.78,-0.48 0.33,0 0.63,0.18 0.78,0.48l3.91 7.94 8.76 1.27c0.33,0.05 0.6,0.28 0.7,0.59 0.11,0.32 0.02,0.66 -0.22,0.89l-6.33 6.18 1.49 8.73c0.06,0.32 -0.08,0.65 -0.34,0.85 -0.15,0.11 -0.33,0.16 -0.51,0.16zm-19.71 -15.93l5.41 5.27c0.2,0.2 0.3,0.48 0.25,0.77l-1.28 7.43 6.68 -3.51c0.26,-0.13 0.56,-0.13 0.81,0l6.68 3.51 -1.27 -7.43c-0.05,-0.29 0.04,-0.57 0.24,-0.77l5.41 -5.27 -7.47 -1.09c-0.28,-0.04 -0.53,-0.22 -0.65,-0.47l-3.34 -6.77 -3.34 6.77c-0.13,0.25 -0.38,0.43 -0.66,0.47l-7.47 1.09z"/>
   <g>
   </g>
   <g>
   </g>
   <g>
   </g>
   <g>
   </g>
   <g>
   </g>
   <g>
   </g>
   <g>
   </g>
   <g>
   </g>
   <g>
   </g>
   <g>
   </g>
   <g>
   </g>
   <g>
   </g>
   <g>
   </g>
   <g>
   </g>
   <g>
   </g>
  </g>
  <g id="_1849137848880">
   <path class="fil1" d="M336.73 122.68c-23.53,0 -42.68,-19.14 -42.68,-42.68 0,-23.54 19.15,-42.68 42.68,-42.68 23.54,0 42.69,19.14 42.69,42.68 0,23.54 -19.15,42.68 -42.69,42.68zm0 -83.73c-22.63,0 -41.05,18.42 -41.05,41.05 0,22.63 18.42,41.05 41.05,41.05 22.63,0 41.05,-18.42 41.05,-41.05 0,-22.63 -18.42,-41.05 -41.05,-41.05zm0 74.58c-7.25,0 -13.97,-2.29 -19.48,-6.19 0,-0.01 -0.01,-0.01 -0.01,-0.01 -0.09,-0.04 -0.17,-0.1 -0.23,-0.17 -0.71,-0.51 -1.39,-1.04 -2.05,-1.6 -0.1,-0.06 -0.18,-0.13 -0.24,-0.21 -1.99,-1.71 -3.77,-3.65 -5.32,-5.77 -0.08,-0.07 -0.14,-0.16 -0.18,-0.25 -0.67,-0.95 -1.29,-1.92 -1.87,-2.93 -0.06,-0.07 -0.1,-0.15 -0.13,-0.24 -1.37,-2.46 -2.45,-5.11 -3.17,-7.89 -0.02,-0.06 -0.04,-0.11 -0.04,-0.16 -0.47,-1.84 -0.79,-3.75 -0.94,-5.69 0,-0.01 0,-0.02 -0.01,-0.03 -0.06,-0.87 -0.1,-1.74 -0.1,-2.63 0,-5.21 1.19,-10.16 3.32,-14.58 0.02,-0.07 0.05,-0.13 0.09,-0.19 0,-0.02 0.01,-0.03 0.02,-0.04 2.21,-4.5 5.39,-8.45 9.27,-11.55 0.07,-0.08 0.15,-0.15 0.24,-0.2 4.58,-3.6 10.12,-6.04 16.16,-6.88 0.02,0 0.04,-0.01 0.06,-0.01 1.51,-0.21 3.05,-0.31 4.61,-0.31 2.32,0 4.58,0.23 6.77,0.68 0.05,0 0.09,0.01 0.13,0.03 5.43,1.13 10.38,3.56 14.51,6.96 0.09,0.05 0.18,0.12 0.25,0.2 2.92,2.45 5.43,5.39 7.39,8.69 0.03,0.03 0.05,0.06 0.07,0.1 0.03,0.04 0.05,0.09 0.07,0.14 0.41,0.7 0.79,1.42 1.15,2.15 0.01,0.01 0.02,0.02 0.03,0.04 0.04,0.06 0.07,0.13 0.09,0.19 2.12,4.42 3.31,9.37 3.31,14.58 0,0.88 -0.03,1.75 -0.1,2.61 0,0.02 0,0.04 0,0.06 -0.15,1.94 -0.47,3.84 -0.94,5.68 -0.01,0.05 -0.02,0.11 -0.04,0.16 -0.73,2.78 -1.8,5.43 -3.17,7.89 -0.03,0.09 -0.08,0.17 -0.14,0.24 -0.57,1.01 -1.2,1.98 -1.87,2.92 -0.04,0.1 -0.1,0.18 -0.18,0.26 -1.54,2.12 -3.33,4.06 -5.31,5.77 -0.07,0.08 -0.15,0.15 -0.24,0.21 -0.66,0.56 -1.35,1.09 -2.05,1.6 -0.07,0.07 -0.14,0.12 -0.23,0.17 -0.01,0 -0.01,0 -0.02,0.01 -5.51,3.9 -12.23,6.19 -19.48,6.19zm-18.08 -7.22c5.15,3.53 11.38,5.59 18.08,5.59 6.7,0 12.93,-2.06 18.09,-5.59l-12.43 -25.36 -5.27 3.41c-0.04,0.03 -0.08,0.05 -0.12,0.07 -0.11,0.05 -0.22,0.07 -0.34,0.07 -0.12,0 -0.24,-0.02 -0.35,-0.07 -0.04,-0.02 -0.08,-0.05 -0.12,-0.07l-5.12 -3.4 -12.42 25.35zm-2.26 -1.69c0.3,0.25 0.6,0.49 0.91,0.72l12.71 -25.93c0.1,-0.22 0.29,-0.37 0.52,-0.43 0.23,-0.06 0.47,-0.03 0.67,0.1l5.47 3.63 5.61 -3.63c0.19,-0.13 0.43,-0.16 0.66,-0.1 0.22,0.06 0.41,0.22 0.52,0.43l12.7 25.93c0.31,-0.23 0.62,-0.47 0.92,-0.72l-12.9 -25.75c-0.19,-0.37 -0.07,-0.82 0.28,-1.05l6.6 -4.29c0.2,-0.13 0.44,-0.16 0.67,-0.1 0.22,0.06 0.41,0.22 0.51,0.43l11.38 23.48c0.32,-0.48 0.63,-0.98 0.92,-1.49l-11.33 -22.57c-0.19,-0.38 -0.05,-0.86 0.33,-1.07l5.76 -3.32c0.2,-0.11 0.43,-0.14 0.65,-0.07 0.22,0.07 0.4,0.22 0.5,0.42l7.9 16.26c0.18,-0.98 0.31,-1.99 0.4,-3l-7.09 -14.23c-0.18,-0.37 -0.06,-0.83 0.3,-1.05l3.37 -2.1c-0.15,-0.3 -0.31,-0.6 -0.48,-0.89l-27.76 16.92c-0.27,0.17 -0.6,0.16 -0.86,0l-27.53 -17.08c-0.19,0.34 -0.38,0.7 -0.57,1.05l3.37 2.1c0.36,0.22 0.49,0.68 0.3,1.05l-7.09 14.23c0.09,1.01 0.22,2.02 0.4,3l7.91 -16.26c0.1,-0.2 0.28,-0.36 0.49,-0.42 0.22,-0.07 0.45,-0.04 0.65,0.07l5.77 3.32c0.37,0.21 0.52,0.69 0.32,1.07l-11.33 22.57c0.3,0.51 0.6,1.01 0.93,1.5l11.37 -23.49c0.1,-0.21 0.29,-0.37 0.52,-0.43 0.22,-0.06 0.47,-0.03 0.66,0.1l6.6 4.29c0.35,0.23 0.47,0.68 0.29,1.05l-12.9 25.75zm-5.47 -5.74c1.24,1.68 2.65,3.23 4.19,4.64l12.39 -24.73 -5.21 -3.38 -11.37 23.47zm35.05 -20.09l12.38 24.73c1.54,-1.41 2.95,-2.96 4.19,-4.64l-11.37 -23.47 -5.2 3.38zm-40.28 9.28c0.56,2.1 1.33,4.11 2.28,6.02l10.47 -20.85 -4.33 -2.49 -8.42 17.32zm49.33 -14.83l10.47 20.85c0.96,-1.91 1.73,-3.92 2.29,-6.03l-8.42 -17.31 -4.34 2.49zm-45.48 -10.58l27.13 16.84 27.35 -16.68c-1.73,-2.78 -3.88,-5.28 -6.35,-7.41l-11.51 7.35c-0.2,0.13 -0.44,0.16 -0.66,0.1 -0.23,-0.06 -0.41,-0.22 -0.52,-0.42l-5.72 -11.59c-0.13,-0.27 -0.11,-0.58 0.07,-0.83 0.17,-0.24 0.46,-0.38 0.75,-0.34l3.42 0.37 -0.7 -1.84c-1.97,-0.38 -3.99,-0.58 -6.07,-0.58 -1.31,0 -2.61,0.08 -3.89,0.24l-3.88 14.42c-0.07,0.25 -0.26,0.46 -0.51,0.55 -0.25,0.09 -0.53,0.06 -0.75,-0.09l-11.37 -7.79c-2.65,2.18 -4.95,4.78 -6.79,7.7zm-2.12 3.95c-1.72,3.81 -2.71,8.01 -2.81,12.44l5.39 -10.84 -2.58 -1.6zm56.04 1.6l5.4 10.84c-0.1,-4.43 -1.1,-8.63 -2.82,-12.44l-2.58 1.6zm-22.07 -16.74l4.66 9.42 10.29 -6.57c-3.41,-2.62 -7.34,-4.58 -11.63,-5.68l0.8 2.08c0.1,0.26 0.05,0.56 -0.12,0.79 -0.18,0.23 -0.45,0.34 -0.74,0.31l-3.26 -0.35zm-23.71 2.43l10 6.85 3.4 -12.62c-4.95,0.88 -9.51,2.9 -13.4,5.77z"/>
   <g>
   </g>
   <g>
   </g>
   <g>
   </g>
   <g>
   </g>
   <g>
   </g>
   <g>
   </g>
   <g>
   </g>
   <g>
   </g>
   <g>
   </g>
   <g>
   </g>
   <g>
   </g>
   <g>
   </g>
   <g>
   </g>
   <g>
   </g>
   <g>
   </g>
  </g>
  <g id="_1849136746096">
   <g>
    <path class="fil1" d="M1103.69 55.73c10.41,0 17.48,3.39 21.01,10.07 0.24,0.44 0.78,0.6 1.21,0.37 0.44,-0.23 0.61,-0.77 0.37,-1.21 -3.87,-7.31 -11.47,-11.02 -22.59,-11.02 -9.76,0 -16.84,2.88 -21.04,8.56 -3.19,4.32 -4.68,10.34 -4.3,17.43 0.28,5.3 1.48,9.29 1.53,9.45 0.01,0.02 0.01,0.03 0.02,0.05l1.25 3.45c0.01,0 0.01,0 0.01,0l5.61 15.4 0 0 0.1 0.26c-2.51,-0.45 -4.63,-2.15 -5.58,-4.6l-1.89 -4.88c-0.71,-1.8 -0.9,-3.76 -0.57,-5.66 0.02,-0.15 0.01,-0.3 -0.04,-0.44 -0.02,-0.06 -1.75,-5.17 -2.34,-11.75 -0.35,-3.85 -0.24,-7.43 0.32,-10.65 0.69,-3.97 2.08,-7.39 4.13,-10.15 0.29,-0.39 0.21,-0.95 -0.19,-1.25 -0.4,-0.29 -0.96,-0.21 -1.25,0.19 -2.21,2.98 -3.71,6.65 -4.45,10.89 -0.59,3.37 -0.7,7.1 -0.34,11.1 0.54,6.1 2.01,10.91 2.36,11.98 -0.33,2.15 -0.09,4.36 0.7,6.39l1.9 4.88c0.67,1.73 1.84,3.2 3.37,4.25 1.53,1.05 3.33,1.6 5.18,1.6 0.61,0.02 1.07,-0.64 0.84,-1.2l-0.04 -0.13 4.93 0.8c0.15,0.02 0.3,0 0.45,-0.05l3.51 -1.28c1.12,-0.4 2.01,-1.22 2.51,-2.3 0.5,-1.08 0.56,-2.29 0.15,-3.41l-3.1 -8.49c-0.17,-0.46 -0.68,-0.7 -1.14,-0.53 -0.47,0.16 -0.71,0.68 -0.54,1.14l3.1 8.49c0.24,0.67 0.21,1.4 -0.09,2.04 -0.3,0.65 -0.83,1.14 -1.5,1.38l-2.67 0.98 -7.2 -19.72 2.68 -0.97c1.38,-0.51 2.91,0.21 3.42,1.59l1.03 2.84c0.45,1.1 2.05,0.51 1.68,-0.61l-1.03 -2.84c-0.85,-2.31 -3.41,-3.5 -5.72,-2.66l-3.5 1.28c-0.14,0.05 -0.28,0.14 -0.38,0.25l-3.26 3.79 -0.73 -1.99c-0.09,-0.31 -1.2,-4.15 -1.45,-9.05 -0.24,-4.64 0.25,-11.22 3.96,-16.23 3.85,-5.2 10.44,-7.83 19.6,-7.83l0 0zm-17.76 33.63l6.76 18.54 -4.42 -0.71 -5.26 -14.44 2.92 -3.39z"/>
    <path class="fil1" d="M1132.42 70.52c-0.7,-4.22 -2.13,-7.88 -4.27,-10.87 -4.79,-6.7 -13.01,-10.09 -24.45,-10.09l-0.01 0c-9.49,0 -16.81,2.35 -21.75,6.99 -0.83,0.85 0.34,2.09 1.23,1.31 4.59,-4.33 11.5,-6.52 20.53,-6.52 10.82,0 18.56,3.15 22.99,9.34 4.5,6.29 4.79,14.71 4.24,20.66 -0.61,6.5 -2.32,11.56 -2.33,11.62 -0.05,0.14 -0.07,0.29 -0.04,0.44 0.33,1.9 0.13,3.86 -0.57,5.66l-1.89 4.88c-0.96,2.45 -3.07,4.15 -5.58,4.6l0.09 -0.26c0.01,0 0.01,0 0.01,0l5.61 -15.4c0,0 0,0 0,0l1.26 -3.45c0.01,-0.02 0.01,-0.03 0.02,-0.05 0.14,-0.45 3.36,-11.22 0.26,-20.87 -0.15,-0.47 -0.66,-0.73 -1.13,-0.58 -0.47,0.15 -0.72,0.66 -0.57,1.13 2.86,8.91 -0.11,19.25 -0.27,19.78l-0.72 1.99 -3.26 -3.79c-0.11,-0.11 -0.24,-0.2 -0.39,-0.26l-3.5 -1.27c-1.11,-0.41 -2.32,-0.36 -3.4,0.14 -1.08,0.51 -1.9,1.4 -2.31,2.52l-5.36 14.7c-0.41,1.12 -0.36,2.33 0.15,3.41 0.5,1.08 1.39,1.89 2.51,2.3l3.51 1.28c0.14,0.05 0.3,0.07 0.45,0.05l4.93 -0.8 -0.05 0.13c-0.22,0.56 0.24,1.22 0.84,1.2 1.86,0 3.65,-0.55 5.19,-1.6 1.53,-1.05 2.7,-2.52 3.37,-4.25l1.9 -4.88c0.79,-2.03 1.03,-4.24 0.7,-6.39 0.34,-1.06 1.78,-5.77 2.34,-11.8 0.37,-3.96 0.28,-7.66 -0.28,-11l0 0zm-23.79 35c-0.3,-0.64 -0.34,-1.37 -0.09,-2.04l5.36 -14.7c0.25,-0.67 0.74,-1.2 1.38,-1.5 0.65,-0.31 1.37,-0.34 2.04,-0.09l2.67 0.97 -7.19 19.72 -2.67 -0.98c-0.67,-0.24 -1.2,-0.73 -1.5,-1.38l0 0zm6.07 2.38l6.76 -18.54 2.92 3.39 -5.27 14.44 -4.41 0.71z"/>
   </g>
  </g>
  <g id="_1849136731664">
   <g>
    <g>
     <path class="fil1" d="M206.98 332.66c-1.61,0 -2.91,1.3 -2.91,2.91l0 17.08c0,1.6 1.3,2.91 2.91,2.91 1.61,0 2.91,-1.31 2.91,-2.91l0 -17.08c0,-1.61 -1.3,-2.91 -2.91,-2.91z"/>
    </g>
   </g>
   <g>
    <g>
     <path class="fil1" d="M197.95 323.63c-1.6,0 -2.91,1.31 -2.91,2.92l0 35.12c0,1.61 1.31,2.91 2.91,2.91 1.61,0 2.92,-1.3 2.92,-2.91l0 -35.12c0,-1.61 -1.31,-2.92 -2.92,-2.92z"/>
    </g>
   </g>
   <g>
    <g>
     <path class="fil1" d="M188.83 315.19c-1.6,0 -2.91,1.31 -2.91,2.91l0 52.01c0,1.61 1.31,2.91 2.91,2.91 1.61,0 2.92,-1.3 2.92,-2.91l0 -52.01c0,-1.6 -1.31,-2.91 -2.92,-2.91z"/>
    </g>
   </g>
   <g>
    <g>
     <path class="fil1" d="M179.81 323.63c-1.61,0 -2.91,1.31 -2.91,2.92l0 35.12c0,1.61 1.3,2.91 2.91,2.91 1.61,0 2.91,-1.3 2.91,-2.91l0 -35.12c0,-1.61 -1.3,-2.92 -2.91,-2.92z"/>
    </g>
   </g>
   <g>
    <g>
     <path class="fil1" d="M170.69 332.08c-1.61,0 -2.91,1.3 -2.91,2.91l0 18.24c0,1.61 1.3,2.91 2.91,2.91 1.61,0 2.91,-1.3 2.91,-2.91l0 -18.24c0,-1.61 -1.3,-2.91 -2.91,-2.91z"/>
    </g>
   </g>
   <g>
    <g>
     <path class="fil1" d="M234.24 315.19c-1.6,0 -2.91,1.31 -2.91,2.91l0 52.01c0,1.61 1.31,2.91 2.91,2.91 1.61,0 2.91,-1.3 2.91,-2.91l0 -52.01c0,-1.6 -1.3,-2.91 -2.91,-2.91z"/>
    </g>
   </g>
   <g>
    <g>
     <path class="fil1" d="M225.12 323.63c-1.6,0 -2.91,1.31 -2.91,2.92l0 35.12c0,1.61 1.31,2.91 2.91,2.91 1.61,0 2.91,-1.3 2.91,-2.91l0 -35.12c0,-1.61 -1.3,-2.92 -2.91,-2.92z"/>
    </g>
   </g>
   <g>
    <g>
     <path class="fil1" d="M216.1 328.19c-1.61,0 -2.91,1.31 -2.91,2.92l0 26c0,1.61 1.3,2.91 2.91,2.91 1.61,0 2.91,-1.3 2.91,-2.91l0 -26c0,-1.61 -1.3,-2.92 -2.91,-2.92z"/>
    </g>
   </g>
   <g>
    <g>
     <path class="fil1" d="M243.27 323.63c-1.61,0 -2.91,1.31 -2.91,2.92l0 35.12c0,1.61 1.3,2.91 2.91,2.91 1.61,0 2.91,-1.3 2.91,-2.91l0 -35.12c0,-1.61 -1.3,-2.92 -2.91,-2.92z"/>
    </g>
   </g>
   <g>
    <g>
     <path class="fil1" d="M252.39 332.08c-1.61,0 -2.91,1.3 -2.91,2.91l0 18.24c0,1.61 1.3,2.91 2.91,2.91 1.61,0 2.91,-1.3 2.91,-2.91l0 -18.24c0,-1.61 -1.3,-2.91 -2.91,-2.91z"/>
    </g>
   </g>
   <g>
   </g>
   <g>
   </g>
   <g>
   </g>
   <g>
   </g>
   <g>
   </g>
   <g>
   </g>
   <g>
   </g>
   <g>
   </g>
   <g>
   </g>
   <g>
   </g>
   <g>
   </g>
   <g>
   </g>
   <g>
   </g>
   <g>
   </g>
   <g>
   </g>
  </g>
  <g id="_1849136728720">
   <g>
    <path class="fil1" d="M608.2 428.12c-1.5,1.5 -0.4,0.4 -8.47,8.47 -0.15,0.15 -0.23,0.37 -0.19,0.59 0.85,5.49 -3.4,10.54 -9.04,10.54 -5.06,0 -9.15,-4.09 -9.15,-9.14 0,-5.65 5.05,-9.9 10.54,-9.04 0.22,0.03 0.44,-0.05 0.6,-0.2 7.86,-7.87 6.85,-6.86 8.46,-8.47 0.18,-0.18 0.16,-0.49 -0.05,-0.64l-2.78 -2.04c-4.44,-3.26 -10.62,-2.79 -14.52,1.11 -1.86,1.86 -2.39,3.54 -3.14,5.41 -1.31,3.26 -4.31,5.45 -7.73,5.76 -7.76,0.71 -12.93,8.25 -10.9,15.7 0.77,2.84 2.28,5.44 4.36,7.51l9.2 9.2c2.13,2.13 4.73,3.6 7.51,4.36 7.42,2.03 14.99,-3.12 15.7,-10.91 0.32,-3.46 2.52,-6.42 5.76,-7.72 2.08,-0.83 3.61,-1.34 5.41,-3.13 3.9,-3.9 4.38,-10.07 1.11,-14.53l-2.04 -2.78c-0.15,-0.21 -0.45,-0.23 -0.64,-0.05l0 0zm-24.48 24.79c0.71,0.71 0.2,1.92 -0.79,1.92 -0.29,0 -0.58,-0.11 -0.79,-0.33l-7.57 -7.56c-0.44,-0.44 -0.44,-1.15 0,-1.59 0.44,-0.44 1.15,-0.44 1.59,0l7.56 7.56z"/>
    <path class="fil1" d="M585.61 443.46c2.69,2.69 7.06,2.7 9.76,0 4.3,-4.31 1.32,-11.78 -4.87,-11.78 -6.09,0 -9.26,7.4 -4.89,11.78z"/>
    <path class="fil1" d="M616.04 408.95c-16.39,16.39 -11.75,11.75 -21.04,21.05 -0.2,0.2 -0.15,0.52 0.09,0.66 1.37,0.8 2.52,1.95 3.32,3.32 0.14,0.24 0.46,0.29 0.66,0.09 8.96,-8.95 4.67,-4.67 21.05,-21.03 0.16,-0.17 0.17,-0.44 0,-0.6 -0.76,-0.75 -2.73,-2.73 -3.49,-3.49 -0.16,-0.16 -0.43,-0.16 -0.59,0z"/>
    <path class="fil1" d="M632.9 407.52l-1.1 -1.1c1.04,-1.05 1.37,-2.29 1.12,-3.51 -0.72,-3.64 -0.49,-3.42 -2.29,-5.22 -0.53,-0.53 -1.2,-0.89 -1.94,-1.04l-2.53 -0.5c-1.21,-0.24 -2.45,0.08 -3.51,1.12l-1.1 -1.1c-0.44,-0.43 -1.15,-0.43 -1.59,0 -0.44,0.44 -0.44,1.15 0,1.59l1.1 1.1c-3.01,3 -1.97,1.97 -2.2,2.19l-1.09 -1.09c-0.44,-0.44 -1.15,-0.44 -1.59,0 -0.44,0.44 -0.44,1.15 0,1.58l1.22 1.22c-0.72,1.28 -0.6,3.19 0.67,4.46l3.78 3.78c1.22,1.21 3.05,1.43 4.46,0.67l1.22 1.22c0.22,0.22 0.5,0.33 0.79,0.33 0.99,0 1.5,-1.21 0.79,-1.91l-1.09 -1.1c0.01,-0.02 2.18,-2.2 2.19,-2.2l1.1 1.1c0.22,0.22 0.51,0.33 0.79,0.33 1,0 1.5,-1.21 0.8,-1.92l0 0z"/>
   </g>
  </g>
  <g id="_1849136721136">
   <g>
    <g>
     <path class="fil1" d="M734.48 134.07c-6.18,-3.86 -14.64,-5.9 -24.48,-5.9 -9.84,0 -18.3,2.04 -24.49,5.9 -7.03,4.4 -10.75,10.93 -10.75,18.91 0,7.79 4.76,21.86 11.85,35.01 3.58,6.64 7.38,12.29 10.99,16.33 4.47,4.98 8.64,7.51 12.4,7.51 3.76,0 7.93,-2.53 12.39,-7.51 3.62,-4.04 7.42,-9.69 11,-16.33 7.09,-13.15 11.85,-27.22 11.85,-35.01 0,-7.98 -3.72,-14.51 -10.76,-18.91z"/>
    </g>
   </g>
   <g>
   </g>
   <g>
   </g>
   <g>
   </g>
   <g>
   </g>
   <g>
   </g>
   <g>
   </g>
   <g>
   </g>
   <g>
   </g>
   <g>
   </g>
   <g>
   </g>
   <g>
   </g>
   <g>
   </g>
   <g>
   </g>
   <g>
   </g>
   <g>
   </g>
  </g>
  <g id="_1849136721296">
   <g>
    <path class="fil1" d="M1551.06 335.92l1.69 -1.31c1.15,-0.89 1.26,-2.59 0.23,-3.62l-10.28 -10.28c-1.03,-1.03 -2.73,-0.93 -3.62,0.22l-1.32 1.69 -1.91 -1.91c-0.95,-0.95 -2.48,-0.95 -3.43,0 -0.94,0.94 -0.94,2.48 0,3.42l2.34 2.35 -2.99 3.85 -1.06 -1.06c-0.94,-0.94 -2.48,-0.94 -3.43,0 -0.94,0.95 -0.94,2.48 0,3.43l1.49 1.48 -1.59 2.05 -14.22 14.21c-2.71,-2.01 -5.82,-2.94 -9.1,-2.68 -4.6,0.35 -9.33,3.12 -12.32,7.22 -1.61,2.2 -3.98,3.66 -6.67,4.1 -3.53,0.58 -6.66,2.14 -9.04,4.52 -8.17,8.17 -5.3,22.1 3.43,30.83 4.49,4.49 10.11,7.36 15.82,8.08 5.56,0.69 11.03,-0.68 15.01,-4.66 2.38,-2.38 3.94,-5.5 4.52,-9.03 0.44,-2.7 1.89,-5.07 4.1,-6.68 4.1,-2.99 6.87,-7.71 7.22,-12.32 0.26,-3.27 -0.67,-6.38 -2.69,-9.1l14.22 -14.21 2.04 -1.6 1.49 1.49c0.94,0.95 2.48,0.95 3.42,0 0.95,-0.95 0.95,-2.48 0,-3.43l-1.05 -1.05 3.85 -3 2.34 2.34c0.95,0.95 2.48,0.95 3.43,0 0.94,-0.94 0.94,-2.48 0,-3.42l-1.92 -1.92zm-9.85 -9.85l6.4 6.4 -11.56 8.99 -3.83 -3.82 8.99 -11.57zm-31.12 40.95l-3.43 -3.42 22.34 -22.34 3.42 3.43 -22.33 22.33zm11.01 2.43c-0.24,3.18 -2.31,6.63 -5.25,8.78 -3.24,2.37 -5.38,5.85 -6.02,9.81 -0.42,2.56 -1.49,4.71 -3.17,6.39 -2.66,2.66 -6.56,3.82 -10.98,3.27 -4.64,-0.58 -9.26,-2.96 -13,-6.7 -7.55,-7.55 -9.09,-18.31 -3.42,-23.98 1.68,-1.68 3.83,-2.74 6.39,-3.16 3.96,-0.65 7.44,-2.78 9.8,-6.02 2.15,-2.95 5.6,-5.01 8.79,-5.25 1.87,-0.15 3.62,0.3 5.24,1.34l-7.96 7.96c-0.94,0.94 -0.94,2.48 0,3.42l6.86 6.85c0.94,0.95 2.47,0.95 3.42,0l7.96 -7.96c1.03,1.62 1.49,3.38 1.34,5.25l0 0z"/>
    <path class="fil1" d="M1487.82 372.16c-3.78,3.79 -3.78,9.92 0,13.7 3.79,3.79 9.92,3.79 13.7,0 3.78,-3.77 3.78,-9.92 0,-13.7 -3.78,-3.78 -9.91,-3.79 -13.7,0zm10.28 10.28c-1.89,1.89 -4.96,1.89 -6.85,0 -1.9,-1.9 -1.9,-4.96 0,-6.85 1.89,-1.9 4.96,-1.9 6.85,0 1.89,1.89 1.89,4.96 0,6.85z"/>
   </g>
  </g>
  <g id="_1849136710704">
   <g>
    <g>
     <path class="fil1" d="M242.89 158.49c-8,0 -14.5,6.51 -14.5,14.51 0,8 6.5,14.51 14.5,14.51 7.99,0 14.49,-6.51 14.49,-14.51 0,-8 -6.5,-14.51 -14.49,-14.51zm0 21.38c-3.78,0 -6.85,-3.08 -6.85,-6.87 0,-3.78 3.07,-6.86 6.85,-6.86 3.77,0 6.84,3.08 6.84,6.86 0,3.79 -3.07,6.87 -6.84,6.87z"/>
    </g>
   </g>
   <g>
    <g>
     <path class="fil1" d="M216.87 204.49l7.88 -7.89c1.5,-1.5 1.49,-3.92 0,-5.41 -1.49,-1.49 -3.91,-1.49 -5.4,0.01l-7.88 7.88 -7.87 -7.88c-1.49,-1.5 -3.91,-1.5 -5.4,-0.01 -1.5,1.49 -1.5,3.91 -0.01,5.41l7.88 7.89 -7.88 7.89c-1.49,1.49 -1.49,3.91 0.01,5.4 0.74,0.75 1.72,1.12 2.7,1.12 0.97,0 1.95,-0.38 2.7,-1.12l7.87 -7.89 7.88 7.89c0.74,0.74 1.72,1.12 2.7,1.12 0.98,0 1.95,-0.37 2.7,-1.12 1.49,-1.49 1.5,-3.91 0,-5.4l-7.88 -7.89z"/>
    </g>
   </g>
   <g>
    <g>
     <path class="fil1" d="M225.48 150.49l-10.58 -21.19c-0.65,-1.29 -1.98,-2.11 -3.42,-2.11 -1.45,0 -2.78,0.82 -3.42,2.11l-10.58 21.19c-0.59,1.18 -0.53,2.59 0.16,3.72 0.71,1.12 1.94,1.81 3.26,1.81l21.16 0c1.32,0 2.55,-0.69 3.25,-1.81 0.69,-1.13 0.76,-2.54 0.17,-3.72zm-18.4 -2.12l4.4 -8.81 4.4 8.81 -8.8 0z"/>
    </g>
   </g>
   <g>
    <g>
     <path class="fil1" d="M190.07 158.88l-20.58 0c-2.11,0 -3.82,1.71 -3.82,3.82l0 20.6c0,2.12 1.71,3.83 3.82,3.83l20.58 0c2.11,0 3.82,-1.72 3.82,-3.83l0 -20.6c0,-2.11 -1.71,-3.82 -3.82,-3.82zm-3.82 20.6l-12.94 0 0 -12.96 12.94 0 0 12.96z"/>
    </g>
   </g>
   <g>
   </g>
   <g>
   </g>
   <g>
   </g>
   <g>
   </g>
   <g>
   </g>
   <g>
   </g>
   <g>
   </g>
   <g>
   </g>
   <g>
   </g>
   <g>
   </g>
   <g>
   </g>
   <g>
   </g>
   <g>
   </g>
   <g>
   </g>
   <g>
   </g>
  </g>
  <g id="_1849136701392">
   <g>
    <g>
     <path class="fil1" d="M607.74 232.33l-14.45 0c-1.34,0 -2.43,1.09 -2.43,2.43l0 14.46c0,0.65 0.26,1.28 0.73,1.73l7.23 7.07c0.47,0.46 1.08,0.69 1.69,0.69 0.62,0 1.23,-0.23 1.7,-0.69l7.23 -7.07c0.46,-0.45 0.73,-1.08 0.73,-1.73l0 -14.46c0,-1.34 -1.09,-2.43 -2.43,-2.43zm-2.43 15.87l-4.8 4.68 -4.79 -4.68 0 -11.01 9.59 0 0 11.01z"/>
    </g>
   </g>
   <g>
    <g>
     <path class="fil1" d="M609.44 272.01l-7.23 -7.07c-0.94,-0.92 -2.45,-0.92 -3.39,0l-7.23 7.07c-0.47,0.45 -0.73,1.08 -0.73,1.73l0 14.46c0,1.34 1.09,2.43 2.43,2.43l14.45 0c1.34,0 2.43,-1.09 2.43,-2.43l0 -14.46c0,-0.65 -0.27,-1.28 -0.73,-1.73zm-13.72 13.76l0 -11.01 4.79 -4.68 4.8 4.69 0 11 -9.59 0z"/>
    </g>
   </g>
   <g>
    <g>
     <path class="fil1" d="M597.05 259.78l-7.06 -7.22c-0.46,-0.47 -1.09,-0.73 -1.74,-0.73l-14.46 -0.01c-1.34,0 -2.43,1.09 -2.43,2.43l0 14.45c0,1.35 1.09,2.43 2.43,2.43l14.46 0c0.65,0 1.28,-0.26 1.74,-0.73l7.06 -7.22c0.93,-0.95 0.93,-2.46 0,-3.4zm-9.82 6.49l-11.01 0 0 -9.59 11.01 0 4.69 4.8 -4.69 4.79z"/>
    </g>
   </g>
   <g>
    <g>
     <path class="fil1" d="M627.24 251.83l-14.46 0c-0.66,0 -1.28,0.26 -1.74,0.73l-7.06 7.22c-0.93,0.95 -0.93,2.46 0,3.4l7.06 7.22c0.46,0.47 1.08,0.73 1.74,0.73l14.46 0c1.34,0 2.43,-1.08 2.43,-2.43l0 -14.45c0,-1.34 -1.09,-2.42 -2.43,-2.42zm-2.43 14.44l-11.01 0 -4.69 -4.79 4.69 -4.8 11.01 0 0 9.59z"/>
    </g>
   </g>
   <g>
   </g>
   <g>
   </g>
   <g>
   </g>
   <g>
   </g>
   <g>
   </g>
   <g>
   </g>
   <g>
   </g>
   <g>
   </g>
   <g>
   </g>
   <g>
   </g>
   <g>
   </g>
   <g>
   </g>
   <g>
   </g>
   <g>
   </g>
   <g>
   </g>
  </g>
  <g id="_1849136684016">
   <g>
    <g>
     <path class="fil1" d="M104.51 241.16l-49.16 0c-0.76,0 -1.38,0.62 -1.38,1.39l0 25.5c0,0.77 0.62,1.39 1.38,1.39 0.77,0 1.39,-0.62 1.39,-1.39l0 -24.12 46.39 0 0 36.04 -46.39 0 0 -6.37c0,-0.77 -0.62,-1.39 -1.39,-1.39 -0.76,0 -1.38,0.62 -1.38,1.39l0 7.76c0,0.77 0.62,1.39 1.38,1.39l49.16 0c0.77,0 1.39,-0.62 1.39,-1.39l0 -38.81c0,-0.77 -0.62,-1.39 -1.39,-1.39z"/>
    </g>
   </g>
   <g>
    <g>
     <path class="fil1" d="M119.82 219.17l-8.66 0c-1.88,0 -3.41,1.53 -3.41,3.41l0 13.96 -57.02 0 -10.69 0c-4.14,0 -7.51,3.37 -7.51,7.52l0 35.79c0,4.15 3.37,7.52 7.51,7.52l10.69 0 58.4 0c0.77,0 1.39,-0.62 1.39,-1.39l0 -15.99 9.3 0c4.15,0 7.52,-3.37 7.52,-7.51l0 -35.8c0,-4.14 -3.37,-7.51 -7.52,-7.51zm-70.47 65.42l-9.31 0c-2.61,0 -4.74,-2.12 -4.74,-4.74l0 -35.79c0,-2.62 2.13,-4.75 4.74,-4.75l9.31 0 0 45.28zm75.22 -22.11c0,2.61 -2.13,4.74 -4.75,4.74l-9.3 0 0 -15.25c0,-0.76 -0.62,-1.38 -1.39,-1.38 -0.76,0 -1.38,0.62 -1.38,1.38l0 16.64 0 15.98 -55.63 0 0 -45.28 55.63 0 0 7.12c0,0.76 0.62,1.38 1.38,1.38 0.77,0 1.39,-0.62 1.39,-1.38l0 -8.5 0 -15.35c0,-0.35 0.29,-0.64 0.64,-0.64l8.66 0c2.62,0 4.75,2.13 4.75,4.74l0 35.8 0 0z"/>
    </g>
   </g>
   <g>
    <g>
     <path class="fil1" d="M42.23 248.18c-3.01,0 -5.45,2.45 -5.45,5.46 0,3 2.44,5.45 5.45,5.45 3.01,0 5.45,-2.45 5.45,-5.45 0,-3.01 -2.44,-5.46 -5.45,-5.46zm0 8.14c-1.48,0 -2.68,-1.21 -2.68,-2.68 0,-1.48 1.2,-2.68 2.68,-2.68 1.48,0 2.68,1.2 2.68,2.68 0,1.47 -1.2,2.68 -2.68,2.68z"/>
    </g>
   </g>
   <g>
    <g>
     <circle class="fil1" cx="42.23" cy="263.98" r="2.12"/>
    </g>
   </g>
   <g>
    <g>
     <circle class="fil1" cx="42.23" cy="271.76" r="2.12"/>
    </g>
   </g>
   <g>
    <g>
     <circle class="fil1" cx="46.12" cy="267.87" r="2.12"/>
    </g>
   </g>
   <g>
    <g>
     <circle class="fil1" cx="38.34" cy="267.87" r="2.12"/>
    </g>
   </g>
   <g>
    <g>
     <path class="fil1" d="M117.64 246.98c-3.01,0 -5.46,2.45 -5.46,5.45 0,3.01 2.45,5.46 5.46,5.46 3,0 5.45,-2.45 5.45,-5.46 0,-3 -2.45,-5.45 -5.45,-5.45zm0 8.13c-1.48,0 -2.68,-1.2 -2.68,-2.68 0,-1.47 1.2,-2.68 2.68,-2.68 1.47,0 2.68,1.21 2.68,2.68 0,1.48 -1.21,2.68 -2.68,2.68z"/>
    </g>
   </g>
   <g>
    <g>
     <circle class="fil1" cx="117.64" cy="242.1" r="2.12"/>
    </g>
   </g>
   <g>
    <g>
     <circle class="fil1" cx="117.64" cy="234.31" r="2.12"/>
    </g>
   </g>
   <g>
    <g>
     <circle class="fil1" cx="113.74" cy="238.2" r="2.12"/>
    </g>
   </g>
   <g>
    <g>
     <circle class="fil1" cx="121.53" cy="238.2" r="2.12"/>
    </g>
   </g>
   <g>
   </g>
   <g>
   </g>
   <g>
   </g>
   <g>
   </g>
   <g>
   </g>
   <g>
   </g>
   <g>
   </g>
   <g>
   </g>
   <g>
   </g>
   <g>
   </g>
   <g>
   </g>
   <g>
   </g>
   <g>
   </g>
   <g>
   </g>
   <g>
   </g>
  </g>
  <g id="_1849136680048">
   <path class="fil1" d="M1150.72 427.05l-16.53 0c-0.65,0 -1.18,0.53 -1.18,1.19 0,0.65 0.53,1.19 1.18,1.19l11.06 0c1.09,0 1.98,0.88 1.98,1.98l0 27.22c0,1.1 -0.89,1.99 -1.98,1.99l-61.52 0c-1.09,0 -1.98,-0.89 -1.98,-1.99l0 -4.95c0,-0.66 -0.53,-1.19 -1.19,-1.19 -0.66,0 -1.19,0.53 -1.19,1.19l0 4.95c0,0.72 0.17,1.39 0.48,1.99l-1.59 0c-1.09,0 -1.98,-0.89 -1.98,-1.99l0 -27.22c0,-1.1 0.89,-1.98 1.98,-1.98l1.59 0c-0.31,0.59 -0.48,1.26 -0.48,1.98l0 16.79c0,0.66 0.53,1.19 1.19,1.19 0.66,0 1.19,-0.53 1.19,-1.19l0 -16.79c0,-1.1 0.89,-1.98 1.98,-1.98l24.1 0 0 5.96c-2.64,0.47 -5.15,1.49 -7.39,3.04 -0.54,0.37 -0.67,1.11 -0.3,1.65 0.38,0.54 1.12,0.68 1.66,0.3 2.73,-1.89 5.94,-2.89 9.28,-2.89 5.44,0 10.53,2.73 13.55,7.21 -3.17,1.38 -5.48,4.37 -5.9,7.93l-23.93 0c0.22,-3.18 1.35,-6.17 3.3,-8.72 0.4,-0.52 0.3,-1.27 -0.22,-1.67 -0.52,-0.4 -1.27,-0.3 -1.67,0.22 -2.27,2.97 -3.57,6.47 -3.8,10.17l-5.03 0c-0.66,0 -1.19,0.53 -1.19,1.19 0,0.65 0.53,1.19 1.19,1.19l54.22 0c0.66,0 1.19,-0.54 1.19,-1.19 0,-0.66 -0.53,-1.19 -1.19,-1.19l-3.12 0c-0.59,-4.93 -4.79,-8.76 -9.88,-8.76 -0.54,0 -1.07,0.04 -1.59,0.13 -1.5,-2.43 -3.52,-4.44 -5.86,-5.94l0 -8.63 7.57 0c0.66,0 1.19,-0.54 1.19,-1.19 0,-0.66 -0.53,-1.19 -1.19,-1.19l-7.57 0 0 -14.06 1.78 0 3.27 3.27c0.6,0.6 1.4,0.93 2.25,0.93 0.84,0 1.64,-0.33 2.24,-0.93 1.23,-1.23 1.23,-3.25 0,-4.48l-4.2 -4.2c-0.6,-0.6 -1.4,-0.93 -2.25,-0.93l-6.38 0c0.23,-1.21 0.35,-2.57 0.35,-3.99 0,-2.17 -0.29,-4.23 -0.82,-5.77 0.98,-0.83 1.61,-2.06 1.61,-3.44 0,-2.49 -2.02,-4.51 -4.51,-4.51 -2.48,0 -4.5,2.02 -4.5,4.51 0,1.38 0.62,2.61 1.6,3.44 -0.52,1.54 -0.82,3.6 -0.82,5.77 0,1.42 0.12,2.78 0.36,3.99l-6.39 0c-0.85,0 -1.64,0.33 -2.24,0.93l-4.2 4.2c-1.24,1.23 -1.24,3.25 0,4.48 0.6,0.6 1.39,0.93 2.24,0.93 0.85,0 1.64,-0.33 2.24,-0.93l3.27 -3.27 1.78 0 0 14.06 -29.57 0c-2.4,0 -4.36,1.95 -4.36,4.36l0 32.14c0,2.4 1.96,4.36 4.36,4.36l72.46 0c2.41,0 4.36,-1.96 4.36,-4.36l0 -32.14c0,-2.41 -1.95,-4.36 -4.36,-4.36l0 0zm-14.64 25.58l-14.95 0c0.57,-3.61 3.7,-6.38 7.47,-6.38 3.77,0 6.91,2.77 7.48,6.38zm-11.28 -43.37l4.2 4.2c0.15,0.15 0.24,0.35 0.24,0.56 0,0.21 -0.09,0.41 -0.24,0.56 -0.15,0.15 -0.34,0.23 -0.55,0.23 -0.22,0 -0.42,-0.08 -0.57,-0.23l-3.62 -3.62c-0.22,-0.22 -0.52,-0.35 -0.84,-0.35l-4.64 0 0.67 -1.58 4.79 0c0.21,0 0.41,0.08 0.56,0.23l0 0zm-12.69 -0.23l4.76 0 -2.38 5.61 -2.38 -5.61zm2.38 -17.71c1.17,0 2.13,0.95 2.13,2.13 0,1.17 -0.96,2.12 -2.13,2.12 -1.17,0 -2.13,-0.95 -2.13,-2.12 0,-1.18 0.96,-2.13 2.13,-2.13zm-1.34 11.34c0,-1.78 0.23,-3.5 0.61,-4.77 0.24,0.04 0.48,0.06 0.73,0.06 0.25,0 0.49,-0.02 0.73,-0.06 0.39,1.27 0.61,2.99 0.61,4.77 0,1.43 -0.14,2.83 -0.41,3.99l-1.86 0c-0.27,-1.16 -0.41,-2.56 -0.41,-3.99l0 0zm-7.59 7.95c-0.31,0 -0.62,0.13 -0.84,0.35l-3.62 3.62c-0.15,0.15 -0.35,0.23 -0.56,0.23 -0.21,0 -0.41,-0.08 -0.56,-0.23 -0.15,-0.15 -0.23,-0.35 -0.23,-0.56 0,-0.21 0.08,-0.41 0.23,-0.56l4.2 -4.2c0.15,-0.15 0.35,-0.24 0.56,-0.24l4.79 0 0.67 1.59 -4.64 0 0 0zm5.65 2.38l1.11 2.63c0.37,0.87 1.22,1.44 2.17,1.44 0.95,0 1.8,-0.57 2.17,-1.44l1.12 -2.63 0.99 0 0 23.78c-0.99,-0.45 -2.03,-0.81 -3.09,-1.08l0 -15.59c0,-0.66 -0.53,-1.19 -1.19,-1.19 -0.66,0 -1.19,0.53 -1.19,1.19l0 15.14c-0.73,-0.08 -1.47,-0.13 -2.22,-0.13 -0.29,0 -0.58,0.01 -0.87,0.02l0 -22.14 1 0zm37.92 16.44l1.59 0c1.1,0 1.98,0.88 1.98,1.98l0 27.22c0,1.1 -0.88,1.99 -1.98,1.99l-1.59 0c0.31,-0.6 0.48,-1.27 0.48,-1.99l0 -27.22c0,-0.72 -0.17,-1.39 -0.48,-1.98l0 0zm1.59 36.1l-72.46 0c-1.09,0 -1.98,-0.89 -1.98,-1.98l0 -1.03c0.59,0.3 1.27,0.47 1.98,0.47l72.46 0c0.72,0 1.39,-0.17 1.98,-0.47l0 1.03c0,1.09 -0.88,1.98 -1.98,1.98zm0 0z"/>
   <path class="fil1" d="M1104.85 400.25c0.23,0.23 0.54,0.35 0.84,0.35 0.31,0 0.61,-0.12 0.84,-0.35 0.47,-0.47 0.47,-1.22 0,-1.68l-0.35 -0.36c-0.47,-0.46 -1.22,-0.46 -1.68,0 -0.47,0.47 -0.47,1.22 0,1.69l0.35 0.35zm0 0z"/>
   <path class="fil1" d="M1101.41 396.81c0.23,0.23 0.54,0.35 0.84,0.35 0.31,0 0.61,-0.12 0.84,-0.35 0.47,-0.46 0.47,-1.22 0,-1.68l-0.35 -0.36c-0.47,-0.46 -1.22,-0.46 -1.68,0 -0.47,0.47 -0.47,1.22 0,1.69l0.35 0.35zm0 0z"/>
   <path class="fil1" d="M1101.9 400.6c0.3,0 0.61,-0.12 0.84,-0.35l0.35 -0.35c0.47,-0.47 0.47,-1.22 0,-1.69 -0.46,-0.46 -1.21,-0.46 -1.68,0l-0.35 0.36c-0.47,0.46 -0.47,1.22 0,1.68 0.23,0.23 0.53,0.35 0.84,0.35zm0 0z"/>
   <path class="fil1" d="M1105.34 397.16c0.3,0 0.61,-0.12 0.84,-0.35l0.35 -0.35c0.47,-0.47 0.47,-1.22 0,-1.69 -0.46,-0.46 -1.21,-0.46 -1.68,0l-0.35 0.36c-0.47,0.46 -0.47,1.22 0,1.68 0.23,0.23 0.53,0.35 0.84,0.35zm0 0z"/>
   <path class="fil1" d="M1096.76 406.89c0.24,0.23 0.54,0.35 0.85,0.35 0.3,0 0.6,-0.12 0.84,-0.35 0.46,-0.46 0.46,-1.22 0,-1.68l-0.36 -0.35c-0.46,-0.47 -1.21,-0.47 -1.68,0 -0.46,0.46 -0.46,1.21 0,1.68l0.35 0.35zm0 0z"/>
   <path class="fil1" d="M1093.32 403.45c0.24,0.23 0.54,0.35 0.84,0.35 0.31,0 0.61,-0.12 0.85,-0.35 0.46,-0.46 0.46,-1.22 0,-1.68l-0.36 -0.35c-0.46,-0.47 -1.21,-0.47 -1.68,0 -0.46,0.46 -0.46,1.21 0,1.68l0.35 0.35zm0 0z"/>
   <path class="fil1" d="M1093.81 407.24c0.31,0 0.61,-0.12 0.84,-0.35l0.36 -0.35c0.46,-0.47 0.46,-1.22 0,-1.68 -0.47,-0.47 -1.22,-0.47 -1.69,0l-0.35 0.35c-0.46,0.46 -0.46,1.22 0,1.68 0.23,0.23 0.54,0.35 0.84,0.35zm0 0z"/>
   <path class="fil1" d="M1097.25 403.8c0.31,0 0.61,-0.12 0.84,-0.35l0.36 -0.35c0.46,-0.47 0.46,-1.22 0,-1.68 -0.47,-0.47 -1.22,-0.47 -1.69,0l-0.35 0.35c-0.46,0.46 -0.46,1.22 0,1.68 0.23,0.23 0.54,0.35 0.84,0.35zm0 0z"/>
   <path class="fil1" d="M1125.7 403.09c0.23,0.23 0.54,0.35 0.84,0.35 0.31,0 0.61,-0.12 0.84,-0.35 0.47,-0.46 0.47,-1.22 0,-1.68l-0.35 -0.35c-0.47,-0.47 -1.22,-0.47 -1.68,0 -0.47,0.46 -0.47,1.21 0,1.68l0.35 0.35zm0 0z"/>
   <path class="fil1" d="M1122.26 399.65c0.23,0.23 0.54,0.35 0.84,0.35 0.31,0 0.61,-0.12 0.84,-0.35 0.47,-0.46 0.47,-1.22 0,-1.68l-0.35 -0.35c-0.46,-0.47 -1.22,-0.47 -1.68,0 -0.47,0.46 -0.47,1.21 0,1.68l0.35 0.35zm0 0z"/>
   <path class="fil1" d="M1122.75 403.44c0.3,0 0.61,-0.12 0.84,-0.35l0.35 -0.35c0.47,-0.47 0.47,-1.22 0,-1.68 -0.46,-0.47 -1.21,-0.47 -1.68,0l-0.35 0.35c-0.47,0.46 -0.47,1.22 0,1.68 0.23,0.23 0.53,0.35 0.84,0.35zm0 0z"/>
   <path class="fil1" d="M1126.19 400c0.3,0 0.61,-0.12 0.84,-0.35l0.35 -0.35c0.47,-0.47 0.47,-1.22 0,-1.68 -0.46,-0.47 -1.21,-0.47 -1.68,0l-0.35 0.35c-0.47,0.46 -0.47,1.22 0,1.68 0.23,0.23 0.53,0.35 0.84,0.35zm0 0z"/>
  </g>
  <g id="_1849135467520">
   <g>
    <g>
     <rect class="fil2" x="1067.33" y="297.26" width="8.98" height="2.57"/>
    </g>
   </g>
   <g>
    <g>
     <rect class="fil2" x="1072.47" y="292.13" width="8.98" height="2.57"/>
    </g>
   </g>
   <g>
    <g>
     <rect class="fil2" x="1067.33" y="292.13" width="2.57" height="2.57"/>
    </g>
   </g>
   <g>
    <g>
     <rect class="fil2" x="1072.47" y="302.4" width="8.98" height="2.57"/>
    </g>
   </g>
   <g>
    <g>
     <rect class="fil2" x="1067.33" y="302.4" width="2.57" height="2.57"/>
    </g>
   </g>
   <g>
    <g>
     <rect class="fil2" x="1078.88" y="297.26" width="2.57" height="2.57"/>
    </g>
   </g>
   <g>
    <g>
     <rect class="fil2" x="1130.22" y="297.26" width="8.98" height="2.57"/>
    </g>
   </g>
   <g>
    <g>
     <rect class="fil2" x="1135.36" y="292.13" width="8.98" height="2.57"/>
    </g>
   </g>
   <g>
    <g>
     <rect class="fil2" x="1130.22" y="292.13" width="2.57" height="2.57"/>
    </g>
   </g>
   <g>
    <g>
     <rect class="fil2" x="1135.36" y="302.4" width="8.98" height="2.57"/>
    </g>
   </g>
   <g>
    <g>
     <rect class="fil2" x="1130.22" y="302.4" width="2.57" height="2.57"/>
    </g>
   </g>
   <g>
    <g>
     <rect class="fil2" x="1141.77" y="297.26" width="2.57" height="2.57"/>
    </g>
   </g>
   <g>
    <g>
     <rect class="fil2" x="1067.33" y="234.37" width="8.98" height="2.57"/>
    </g>
   </g>
   <g>
    <g>
     <rect class="fil2" x="1072.47" y="229.24" width="8.98" height="2.57"/>
    </g>
   </g>
   <g>
    <g>
     <rect class="fil2" x="1067.33" y="229.24" width="2.57" height="2.57"/>
    </g>
   </g>
   <g>
    <g>
     <rect class="fil2" x="1072.47" y="239.51" width="8.98" height="2.57"/>
    </g>
   </g>
   <g>
    <g>
     <rect class="fil2" x="1067.33" y="239.51" width="2.57" height="2.57"/>
    </g>
   </g>
   <g>
    <g>
     <rect class="fil2" x="1078.88" y="234.37" width="2.57" height="2.57"/>
    </g>
   </g>
   <g>
    <g>
     <rect class="fil2" x="1130.22" y="234.37" width="8.98" height="2.57"/>
    </g>
   </g>
   <g>
    <g>
     <rect class="fil2" x="1135.36" y="229.24" width="8.98" height="2.57"/>
    </g>
   </g>
   <g>
    <g>
     <rect class="fil2" x="1130.22" y="229.24" width="2.57" height="2.57"/>
    </g>
   </g>
   <g>
    <g>
     <rect class="fil2" x="1135.36" y="239.51" width="8.98" height="2.57"/>
    </g>
   </g>
   <g>
    <g>
     <rect class="fil2" x="1130.22" y="239.51" width="2.57" height="2.57"/>
    </g>
   </g>
   <g>
    <g>
     <rect class="fil2" x="1141.77" y="234.37" width="2.57" height="2.57"/>
    </g>
   </g>
   <g>
    <g>
     <path class="fil2" d="M1137.71 279.54c-0.65,-0.65 -1.46,-1.12 -2.35,-1.35l0 -23.46c2.74,-0.71 4.38,-3.51 3.67,-6.25 -0.7,-2.74 -3.5,-4.39 -6.24,-3.68 -0.89,0.23 -1.69,0.69 -2.34,1.34l-19.7 -11.64c0.14,-0.46 0.21,-0.93 0.22,-1.41 0,-2.84 -2.3,-5.13 -5.13,-5.13 -2.84,0 -5.14,2.29 -5.14,5.13 0.01,0.48 0.08,0.95 0.22,1.41l-19.69 11.64c-2,-2 -5.25,-2.01 -7.25,-0.01 -2.01,2 -2.01,5.25 -0.01,7.25 0.65,0.65 1.46,1.12 2.35,1.35l0 23.46c-2.74,0.71 -4.39,3.51 -3.68,6.25 0.71,2.74 3.5,4.38 6.24,3.67 0.89,-0.22 1.7,-0.69 2.35,-1.33l19.7 11.64c-0.83,2.71 0.7,5.58 3.41,6.4 2.72,0.83 5.58,-0.7 6.41,-3.42 0.29,-0.97 0.29,-2.01 0,-2.98l19.7 -11.64c2,2 5.24,2 7.25,0.01 2,-2 2.01,-5.25 0.01,-7.25zm-3.64 -32.33c1.42,0 2.57,1.15 2.57,2.56 0,1.42 -1.15,2.57 -2.57,2.57 -1.42,0 -2.56,-1.15 -2.56,-2.57 0,-1.41 1.14,-2.56 2.56,-2.56zm-28.23 -16.69c1.41,0 2.56,1.15 2.56,2.57 0,1.42 -1.15,2.57 -2.56,2.57 -1.42,0 -2.57,-1.15 -2.57,-2.57 0,-1.42 1.15,-2.57 2.57,-2.57zm-23.33 17.84l19.7 -11.64c2,2 5.25,2 7.25,0 0,0 0,0 0,0l19.7 11.64c-0.3,0.92 -0.3,1.91 0,2.83l-23.32 13.78 -23.33 -13.78c0.3,-0.92 0.3,-1.91 0,-2.83zm-7.48 1.41c0,-1.41 1.15,-2.56 2.57,-2.56 1.42,0 2.57,1.15 2.57,2.56 0,1.42 -1.15,2.57 -2.57,2.57 -1.42,0 -2.57,-1.15 -2.57,-2.57zm2.57 35.94c-1.42,0 -2.57,-1.15 -2.57,-2.57 0,-1.41 1.15,-2.56 2.57,-2.56 1.42,0 2.57,1.15 2.57,2.56 0,1.42 -1.15,2.57 -2.57,2.57zm4.91 -1.16c0.82,-2.65 -0.67,-5.46 -3.32,-6.27 -0.1,-0.04 -0.2,-0.06 -0.31,-0.09l0 -23.46c0.89,-0.23 1.7,-0.68 2.34,-1.32l23.33 13.78 0 27.69c-0.88,0.22 -1.69,0.68 -2.34,1.32l-19.7 -11.65zm23.33 17.85c-1.42,0 -2.57,-1.15 -2.57,-2.57 0,-1.42 1.15,-2.57 2.57,-2.57 1.41,0 2.56,1.15 2.56,2.57 0,1.42 -1.15,2.57 -2.56,2.57zm23.1 -19.26c0.01,0.48 0.08,0.96 0.22,1.41l-19.7 11.65c-0.65,-0.64 -1.46,-1.1 -2.34,-1.32l0 -27.69 23.33 -13.78c0.65,0.64 1.45,1.09 2.34,1.32l0 23.46c-2.26,0.59 -3.84,2.62 -3.85,4.95zm5.13 2.57c-1.42,0 -2.56,-1.15 -2.56,-2.57 0,-1.41 1.14,-2.56 2.56,-2.56 1.42,0 2.57,1.15 2.57,2.56 0,1.42 -1.15,2.57 -2.57,2.57z"/>
    </g>
   </g>
   <g>
    <g>
     <rect class="fil2" transform="matrix(0.132732 -0.0784461 0.0784461 0.132732 1095.82 270.89)" width="15.56" height="16.65"/>
    </g>
   </g>
   <g>
    <g>
     <rect class="fil2" transform="matrix(0.132732 -0.0784461 0.0784461 0.132732 1091.69 273.331)" width="15.56" height="16.65"/>
    </g>
   </g>
   <g>
    <g>
     <rect class="fil2" transform="matrix(0.132732 -0.0784461 0.0784461 0.132732 1099.95 268.449)" width="15.56" height="16.65"/>
    </g>
   </g>
   <g>
    <g>
     <rect class="fil2" transform="matrix(0.132732 -0.0784461 0.0784461 0.132732 1087.56 275.768)" width="15.56" height="16.65"/>
    </g>
   </g>
   <g>
    <g>
     <rect class="fil2" transform="matrix(0.132732 -0.0784461 0.0784461 0.132732 1083.43 278.213)" width="15.56" height="16.65"/>
    </g>
   </g>
   <g>
    <g>
     <rect class="fil2" transform="matrix(0.0784306 -0.132732 0.132732 0.0784306 1124.87 279.195)" width="16.65" height="15.56"/>
    </g>
   </g>
   <g>
    <g>
     <rect class="fil2" transform="matrix(0.0784152 -0.132748 0.132748 0.0784152 1120.75 276.756)" width="16.65" height="15.56"/>
    </g>
   </g>
   <g>
    <g>
     <rect class="fil2" transform="matrix(0.0784306 -0.132732 0.132732 0.0784306 1116.61 274.32)" width="16.65" height="15.56"/>
    </g>
   </g>
   <g>
    <g>
     <rect class="fil2" transform="matrix(0.0784306 -0.132732 0.132732 0.0784306 1108.35 269.442)" width="16.65" height="15.56"/>
    </g>
   </g>
   <g>
    <g>
     <rect class="fil2" transform="matrix(0.0784152 -0.132748 0.132748 0.0784152 1112.48 271.877)" width="16.65" height="15.56"/>
    </g>
   </g>
   <g>
    <g>
     <rect class="fil2" x="1104.55" y="260.04" width="2.57" height="2.57"/>
    </g>
   </g>
   <g>
    <g>
     <rect class="fil2" x="1104.55" y="254.91" width="2.57" height="2.57"/>
    </g>
   </g>
   <g>
    <g>
     <rect class="fil2" x="1104.55" y="249.77" width="2.57" height="2.57"/>
    </g>
   </g>
   <g>
    <g>
     <rect class="fil2" x="1104.55" y="244.64" width="2.57" height="2.57"/>
    </g>
   </g>
   <g>
    <g>
     <rect class="fil2" x="1104.55" y="239.51" width="2.57" height="2.57"/>
    </g>
   </g>
   <g>
   </g>
   <g>
   </g>
   <g>
   </g>
   <g>
   </g>
   <g>
   </g>
   <g>
   </g>
   <g>
   </g>
   <g>
   </g>
   <g>
   </g>
   <g>
   </g>
   <g>
   </g>
   <g>
   </g>
   <g>
   </g>
   <g>
   </g>
   <g>
   </g>
  </g>
 </g>
</svg>
